<svg xmlns="http://www.w3.org/2000/svg" xmlns:xlink="http://www.w3.org/1999/xlink" viewBox="0 0 592.77 724.36"><defs><clipPath id="clip-path" transform="translate(-636 -110.47)"><polygon points="932.39 834.17 636.5 652.5 636.5 291.56 930 110.58 1223.5 290.5 1228.27 652.5 932.39 834.17" style="fill:none"/></clipPath><radialGradient id="radial-gradient" cx="294.5" cy="295.81" r="201.17" gradientUnits="userSpaceOnUse"><stop offset="0" stop-color="#e346e8"/><stop offset="0.11" stop-color="#dd44e3"/><stop offset="0.26" stop-color="#cc3ed4"/><stop offset="0.43" stop-color="#af35bb"/><stop offset="0.61" stop-color="#882899"/><stop offset="0.81" stop-color="#56176d"/><stop offset="1" stop-color="#1f053d"/></radialGradient><radialGradient id="radial-gradient-2" cx="140.98" cy="645.27" fx="243.14751759557817" fy="552.6295308907031" r="137.91" gradientUnits="userSpaceOnUse"><stop offset="0.33" stop-color="#e346e8"/><stop offset="0.42" stop-color="#dd43e5"/><stop offset="0.55" stop-color="#cc3cdd"/><stop offset="0.7" stop-color="#af31d0"/><stop offset="0.85" stop-color="#8821be"/><stop offset="1" stop-color="#5e0faa"/></radialGradient><radialGradient id="radial-gradient-3" cx="337.58" cy="599.37" r="208.84" gradientUnits="userSpaceOnUse"><stop offset="0" stop-color="#e346e8"/><stop offset="0.14" stop-color="#dd43e5"/><stop offset="0.33" stop-color="#cc3cdd"/><stop offset="0.55" stop-color="#af31d0"/><stop offset="0.78" stop-color="#8821be"/><stop offset="1" stop-color="#5e0faa"/></radialGradient><radialGradient id="radial-gradient-4" cx="1092.04" cy="694.34" fx="957.4247275359048" fy="607.5894543388896" r="160.14" gradientUnits="userSpaceOnUse"><stop offset="0.33" stop-color="#e346e8"/><stop offset="0.43" stop-color="#e245e2"/><stop offset="0.56" stop-color="#e141d1"/><stop offset="0.72" stop-color="#de3cb5"/><stop offset="0.89" stop-color="#db348d"/><stop offset="1" stop-color="#d82e6f"/></radialGradient><radialGradient id="radial-gradient-5" cx="677.74" cy="549.02" fx="768.4897763354479" fy="569.8809462552911" r="198.93" gradientTransform="translate(946.9 680.22) rotate(151.28) scale(1 1.18)" gradientUnits="userSpaceOnUse"><stop offset="0" stop-color="#e346e8"/><stop offset="0" stop-color="#dd49e8"/><stop offset="0.01" stop-color="#cc52e8"/><stop offset="0.01" stop-color="#af60e7"/><stop offset="0.02" stop-color="#8873e6"/><stop offset="0.03" stop-color="#568ce5"/><stop offset="0.03" stop-color="#4893e5"/><stop offset="0.09" stop-color="#498ce2"/><stop offset="0.18" stop-color="#4c7ada"/><stop offset="0.28" stop-color="#515ccc"/><stop offset="0.4" stop-color="#5833ba"/><stop offset="0.48" stop-color="#5e0faa"/></radialGradient><radialGradient id="radial-gradient-6" cx="81.71" cy="263.26" r="221.21" xlink:href="#radial-gradient-3"/><radialGradient id="radial-gradient-7" cx="774.04" cy="239.67" fx="905.4018111226201" fy="269.86468399856665" r="287.96" gradientTransform="translate(952.55 4.96) rotate(151.28) scale(1 1.18)" xlink:href="#radial-gradient-5"/><radialGradient id="radial-gradient-8" cx="490.05" cy="233.74" r="204.4" xlink:href="#radial-gradient"/><radialGradient id="radial-gradient-9" cx="823.5" cy="405.5" r="157.17" gradientUnits="userSpaceOnUse"><stop offset="0.33" stop-color="#fff"/><stop offset="0.39" stop-color="#f9fdfe"/><stop offset="0.48" stop-color="#e8f8fc"/><stop offset="0.57" stop-color="#cbeff9"/><stop offset="0.68" stop-color="#a4e3f5"/><stop offset="0.79" stop-color="#71d4ef"/><stop offset="0.91" stop-color="#34c2e9"/><stop offset="1" stop-color="#00b2e3"/></radialGradient><radialGradient id="radial-gradient-10" cx="296.89" cy="361.9" r="330.49" gradientUnits="userSpaceOnUse"><stop offset="0.33" stop-color="#e346e8"/><stop offset="0.4" stop-color="#dd44e2"/><stop offset="0.5" stop-color="#cc3fd3"/><stop offset="0.62" stop-color="#af37b9"/><stop offset="0.74" stop-color="#882b95"/><stop offset="0.87" stop-color="#561c67"/><stop offset="1" stop-color="#1f0c35"/></radialGradient></defs><g id="Layer_4" data-name="Layer 4"><g style="clip-path:url(#clip-path)"><polygon points="296.39 723.7 0.5 542.03 0.5 181.09 294 0.11 587.5 180.03 592.27 542.03 296.39 723.7" style="fill:#8a23cc"/><g id="Layer_5" data-name="Layer 5"><polygon points="88.5 492.03 286.21 99.58 500.5 492.03 88.5 492.03" style="fill:url(#radial-gradient)"/></g><g id="Layer_7" data-name="Layer 7"><polyline points="0.5 542.03 88.5 492.03 296.39 723.7 0.5 542.03" style="fill:url(#radial-gradient-2)"/></g><g id="Layer_8" data-name="Layer 8"><polyline points="296.39 723.7 500.5 492.03 88.5 492.03 296.39 723.7" style="fill:url(#radial-gradient-3)"/><path d="M932.39,834.17l283.82-174.26a8.2,8.2,0,0,0-.37-14.18L1136.5,602.5" transform="translate(-636 -110.47)" style="fill:url(#radial-gradient-4)"/></g><g id="Layer_9" data-name="Layer 9"><polyline points="0.5 542.03 88.5 492.03 0.5 181.09 0.5 542.03" style="fill:url(#radial-gradient-5)"/></g><g id="Layer_10" data-name="Layer 10"><polyline points="0.5 181.09 88.5 492.03 286.21 99.58 0.5 181.09" style="fill:url(#radial-gradient-6)"/></g><g id="Layer_11" data-name="Layer 11"><polyline points="0.5 181.09 286.21 99.58 294 0.11 0.5 181.09" style="fill:url(#radial-gradient-7)"/><polyline points="500.5 492.03 286.21 99.58 587.5 180.03" style="fill:url(#radial-gradient-8)"/></g><g id="Layer_12" data-name="Layer 12"><path d="M923.45,210.23c-7.61,16.64-15.49,33.14-23.4,49.62s-16,32.9-24,49.31-16.24,32.76-24.52,49l-12.37,24.48L826.64,407.1l-12.5,24.41-12.6,24.35L788.92,480.2,776.2,504.49c-17,32.37-34.15,64.67-51.75,96.74l-.9-.46c15.56-33.1,31.6-66,47.75-98.76l12.16-24.59,12.25-24.53L808,428.37l12.38-24.47,12.38-24.46L845.25,355c8.3-16.29,16.82-32.47,25.23-48.7s17-32.34,25.72-48.44,17.38-32.18,26.35-48.13Z" transform="translate(-636 -110.47)" style="fill:url(#radial-gradient-9)"/><path d="M636.36,291c53-16.91,107-32.24,160.79-46.24l11.6-2.91q5.79-1.47,11.61-2.85l.28,1c-29.8,9.71-61.37,18.9-91.59,27.46-30.69,8.62-61.44,17-92.41,24.54l-.28-1Z" transform="translate(-636 -110.47)" style="fill:#eee8f7"/><path d="M930,110.53c2.08,17,1.19,34.16-.85,51.13A139.33,139.33,0,0,1,926,178.53l-1-.06c-2.1-17-1.18-34.15.86-51.13A141.25,141.25,0,0,1,929,110.47l1,.06Z" transform="translate(-636 -110.47)" style="fill:#eee8f7"/><path d="M1135.06,602.74c-25.74-42-49.68-85.76-72.94-129.18-23.33-43.61-46.28-87.41-68.06-131.82l.88-.48c34.56,58.52,67.34,118.19,99.31,178.16,8.34,15.89,17.49,33.48,25.46,49.46,5.53,11.06,11,22.16,16.23,33.38l-.88.48Z" transform="translate(-636 -110.47)" style="fill:#eee8f7"/><path d="M932.13,834.83c-37.21-36.46-71.94-75.3-105.88-114.78-11.27-13.21-22.4-26.53-33.12-40.22l.74-.66c31,30.44,60.15,62.55,88.92,95,17.12,19.64,34.07,39.37,50.08,60l-.74.66Z" transform="translate(-636 -110.47)" style="fill:#eee8f7"/><line x1="592.5" y1="542.03" x2="558.5" y2="524.03" style="fill:none;stroke:#eee8f7;stroke-miterlimit:10"/><line x1="587.5" y1="180.03" x2="590.5" y2="420.03" style="fill:none;stroke:#eee8f7;stroke-miterlimit:10"/><line x1="0.5" y1="542.03" x2="0.5" y2="304.03" style="fill:none;stroke:#eee8f7;stroke-miterlimit:10"/></g></g></g><g id="Layer_4_copy" data-name="Layer 4 copy"><polygon points="296.89 723.7 1 542.03 1 181.09 294.5 0.11 588 180.03 592.77 542.03 296.89 723.7" style="opacity:0.47000000000000003;fill:url(#radial-gradient-10)"/></g></svg>