<svg xmlns="http://www.w3.org/2000/svg" viewBox="0 0 137.15 138.34"><g id="Layer_1" data-name="Layer 1"><path d="M942.34,445.66c-.55,7.14,1.61,14.29,1,21.41A54.42,54.42,0,0,1,941,477.43a32.76,32.76,0,0,1-2.58,6.84c-3.61,6.44-11,9.62-18.07,11.87a27.18,27.18,0,0,1-9.06,1.7c-2.71-.09-5.45-.93-8.1-.35A20,20,0,0,0,897.8,500a35.79,35.79,0,0,1-21,4.38,8.16,8.16,0,0,1-3.91-1.17,8.25,8.25,0,0,1-2.34-3,34.54,34.54,0,0,1-2.67-24.47c.76-2.88,1.91-5.67,2.38-8.62a43.13,43.13,0,0,0,.08-9.23,176.83,176.83,0,0,1,0-19.4,15.88,15.88,0,0,1,1.11-5.77c1.29-2.78,4-4.61,6.85-5.82s5.84-1.92,8.6-3.26c1.35-.66,2.63-1.46,4-2a24.7,24.7,0,0,1,3.8-1l9.35-1.9a59,59,0,0,1,9.13-1.38,49.59,49.59,0,0,1,8.61.5c3,.38,6.47,1.13,7.92,3.81.85,1.58.8,3.48,1.37,5.18.88,2.59,3.11,4.46,5.34,6.05s4.61,3.11,6.07,5.42,1.69,5.69-.32,7.54" transform="translate(-839.3 -366.25)" style="fill:#7a451e"/></g><g id="Layer_2" data-name="Layer 2"><path d="M863.71,466.46c6.55,1.07,12.94,4.82,15.85,10.79a22.86,22.86,0,0,1,2,10.6,13.08,13.08,0,0,1-1.44,6.3c-2.13,3.65-6.7,5-10.9,5.55a52.89,52.89,0,0,1-11.73.17,12.89,12.89,0,0,1-3.94-.88,12.71,12.71,0,0,1-2.83-1.89c-5.08-4.15-9.77-9.44-10.81-15.92a8.86,8.86,0,0,1,0-3.48,10,10,0,0,1,3.43-4.94,27.41,27.41,0,0,1,21.31-6.44" transform="translate(-839.3 -366.25)" style="fill:#562d0f"/></g><g id="Layer_4" data-name="Layer 4"><path d="M863.64,468.24a22.19,22.19,0,0,1-1.35,9.38,11.85,11.85,0,0,1-2.45,4.15c-2.85,2.94-7.43,3.3-11.5,2.86a5.1,5.1,0,0,1-2.18-.59c-1.16-.72-1.6-2.16-1.95-3.48l-3.43-12.81a14.21,14.21,0,0,1-.72-5.19c.29-2.52,1.93-4.76,2.11-7.29.3-4.17-3.32-8.46-1.44-12.18.92-1.8,2.89-2.8,4.81-3.44,4.62-1.53,10.37-1.35,13.59,2.31a16.72,16.72,0,0,1,2.74,5.18,42.5,42.5,0,0,1,2.94,9.94,14.41,14.41,0,0,1-2,10" transform="translate(-839.3 -366.25)" style="fill:#7a4b2b"/></g><g id="Layer_5" data-name="Layer 5"><path d="M931.82,428.38c-2.27,4-2.54,9.68.91,12.73a11.19,11.19,0,0,0,4.87,2.26,23.62,23.62,0,0,0,19.88-4.47,13.52,13.52,0,0,0,5.15-7.59c.61-3.06-.6-6.61-3.38-8.05a8.37,8.37,0,0,0-5.92-.36,43.59,43.59,0,0,0-5.64,2.2A38,38,0,0,1,933.26,428" transform="translate(-839.3 -366.25)" style="fill:#562d0f"/></g><g id="Layer_6" data-name="Layer 6"><path d="M973.81,432.4a34.35,34.35,0,0,0,1.75,11.77c.53,1.59,1.18,3.27.75,4.89a5.14,5.14,0,0,1-3.6,3.36,13.56,13.56,0,0,1-5.12.27,10.48,10.48,0,0,1-4.25-1c-2.2-1.2-3.32-3.68-4.3-6-1.9-4.5-3.84-9.21-3.49-14.08a21.71,21.71,0,0,1,2.43-8.06,9.54,9.54,0,0,1,3.68-4.4c2.73-1.46,6.21-.34,8.56,1.68,3.14,2.7,4.8,7.63,2.52,11.08" transform="translate(-839.3 -366.25)" style="fill:#704528"/></g><g id="Layer_7" data-name="Layer 7"><path d="M929.25,413.57a13.14,13.14,0,0,1-5.89,15.4c-2.28,1.25-5.34,1.68-7.35,0-1.57-1.3-2-3.47-2.43-5.47l-1.51-8a44.74,44.74,0,0,1-1-7.45,45.47,45.47,0,0,1,.54-6.68l2.3-17.42a20,20,0,0,1,1.66-6.64c1.48-2.89,4.25-4.87,7.07-6.47,2-1.14,4.74-2.08,6.5-.57a5.86,5.86,0,0,1,1.55,3.86c.88,7.12.5,14.32.12,21.48l-1,19.66" transform="translate(-839.3 -366.25)" style="fill:#562d0f"/><path d="M856.94,370.53c4.42,2.21,8.94,4.5,12.23,8.18,4.05,4.53,5.76,10.62,8.42,16.09,3.5,7.19,8.72,13.41,12.44,20.48,1.32,2.51,2.46,5.46,1.44,8.11s-3.94,4.09-6.75,4.53a16.28,16.28,0,0,1-12.94-3.64,42.49,42.49,0,0,1-5.28-6.07c-5.15-6.47-11.61-12.26-14.32-20.08-1.63-4.7-1.76-9.78-1.45-14.75.3-4.77,1.26-10,5-12.94" transform="translate(-839.3 -366.25)" style="fill:#562d0f"/></g><g id="Layer_8" data-name="Layer 8"><path d="M929.71,377.2A41.72,41.72,0,0,1,918,392.67c-2.61,2.15-5.62,4-9,4.39s-7.1-1.16-8.48-4.25a8.21,8.21,0,0,1-.31-5.23,5.5,5.5,0,0,1,1.24-2.51,15,15,0,0,1,3-1.92c4.82-3.08,4.48-10.76,9-14.34,1.95-1.56,4.54-2.08,7-2.39a12,12,0,0,1,4,0,7.36,7.36,0,0,1,5.17,4.83,9.4,9.4,0,0,1-.63,7.18" transform="translate(-839.3 -366.25)" style="fill:#7a451e"/><path d="M857,401.51c-1.7,3.5-5,6.41-8.91,6.7s-8-2.72-8.07-6.61,3.27-6.8,4.69-10.37c1.21-3.05,1-6.45,1-9.73s.46-6.82,2.66-9.25a9.67,9.67,0,0,1,7.12-2.9c2.61,0,5.45,1,6.68,3.31a9.72,9.72,0,0,1,.86,4.25,50.24,50.24,0,0,1-1,13.85,24.52,24.52,0,0,1-6.53,12.09" transform="translate(-839.3 -366.25)" style="fill:#7a451e"/><path d="M929.47,406.46a3.45,3.45,0,0,0-1.89.68,7.8,7.8,0,0,1-2.23.88,20.81,20.81,0,0,1-5.21.63,10.19,10.19,0,0,1-8.13-3.54c-.4-.51-1.1.2-.71.7a10.89,10.89,0,0,0,8.12,3.82,21.44,21.44,0,0,0,5.36-.46,11.77,11.77,0,0,0,2.38-.69c.73-.31,1.49-1,2.31-1,.64,0,.64-1,0-1Z" transform="translate(-839.3 -366.25)" style="fill:#2b211b"/><path d="M878.13,397.06c-3.92,6.23-9.89,11.79-17.56,12.41-.64,0-.64,1,0,1,8-.65,14.3-6.35,18.42-12.91.34-.54-.52-1-.86-.5Z" transform="translate(-839.3 -366.25)" style="fill:#2b211b"/><path d="M860.56,396c-.15-1.81.23-3.75-.63-5.44a5.59,5.59,0,0,0-3.59-2.55,22.62,22.62,0,0,0-5.11-.83,9.26,9.26,0,0,0-5.3,1.06.5.5,0,0,0,.5.87,8.31,8.31,0,0,1,4.7-.94,23.06,23.06,0,0,1,4.6.71,4.88,4.88,0,0,1,3.34,2.19c.76,1.48.36,3.33.49,4.93.05.64,1.06.64,1,0Z" transform="translate(-839.3 -366.25)" style="fill:#2b211b"/><path d="M919.42,390.83a6.12,6.12,0,0,0,3-4.1,14.11,14.11,0,0,0,.16-3.18,5,5,0,0,0-.73-2.71c-1-1.37-2.66-1.86-4.23-2.13a17.09,17.09,0,0,0-5.48-.22,6.75,6.75,0,0,0-2.7,1c-.87.59-1.51,1.62-2.52,2-.6.22-.34,1.18.27,1a7.09,7.09,0,0,0,2.27-1.7,5.62,5.62,0,0,1,2.76-1.25,15.52,15.52,0,0,1,6.1.39,4.77,4.77,0,0,1,2.49,1.25,4.65,4.65,0,0,1,.78,3.28,7.5,7.5,0,0,1-.58,3.38,5.21,5.21,0,0,1-2.12,2.19c-.56.31,0,1.18.51.86Z" transform="translate(-839.3 -366.25)" style="fill:#2b211b"/><path d="M862,466.19c-3.35,2.24-7.77,2.34-11.67,2.18a10.87,10.87,0,0,1-5.69-1.9,30.47,30.47,0,0,1-4.48-3.94.5.5,0,0,0-.71.71,32,32,0,0,0,4.69,4.09,11.7,11.7,0,0,0,6,2c4.11.22,8.87.05,12.4-2.31.53-.35,0-1.22-.5-.86Z" transform="translate(-839.3 -366.25)" style="fill:#2b211b"/><path d="M869.11,468.67a12.42,12.42,0,0,1,.53,8.29,21.75,21.75,0,0,1-3,7A16.88,16.88,0,0,1,854,491.77a14.09,14.09,0,0,1-8.39-1.94c-.55-.34-1,.53-.5.86a15.88,15.88,0,0,0,15.89,0A20.76,20.76,0,0,0,870.4,478c.89-3.23,1.08-6.76-.43-9.84-.28-.57-1.14-.07-.86.51Z" transform="translate(-839.3 -366.25)" style="fill:#2b211b"/><path d="M941.75,426.78a17.93,17.93,0,0,0,1.57,10.85c1.37,2.89,3.89,5.3,7.19,5.61.64.06.64-.94,0-1-3-.28-5.22-2.69-6.42-5.31a16.86,16.86,0,0,1-1.38-9.89c.12-.63-.85-.9-1-.26Z" transform="translate(-839.3 -366.25)" style="fill:#2b211b"/><path d="M973.76,431.7c-2.23-2.67-6.19-2.8-9.36-2.31a12.61,12.61,0,0,0-8.66,5c-.36.54.5,1,.86.51a11.54,11.54,0,0,1,7.88-4.52c2.88-.48,6.55-.41,8.57,2,.42.49,1.12-.22.71-.71Z" transform="translate(-839.3 -366.25)" style="fill:#2b211b"/><path d="M941.31,456.59c-5.68,7.84-15.71,10.42-24.88,11-2.61.17-5.22.2-7.83.2a72.23,72.23,0,0,1-7.92-.32c-5.08-.55-9.88-2.44-14.92-3.24a26.55,26.55,0,0,0-7.86,0c-2.14.29-4.79.71-6.46-1-.45-.46-1.16.25-.71.71,1.47,1.49,3.56,1.65,5.54,1.48a43,43,0,0,1,6.9-.48c5.29.36,10.27,2.43,15.48,3.27a54.4,54.4,0,0,0,8.27.58c2.7,0,5.4,0,8.09-.11a48.15,48.15,0,0,0,15.19-2.76,26.23,26.23,0,0,0,12-8.8c.38-.53-.48-1-.86-.51Z" transform="translate(-839.3 -366.25)" style="fill:#2b211b"/><path d="M900.16,467.71c-2.36,4.29-4.83,8.81-5,13.81a14.3,14.3,0,0,0,1.17,6.39,12.69,12.69,0,0,0,4.16,4.81c1.92,1.45,4.09,2.7,5.53,4.7.37.52,1.24,0,.86-.51-2.4-3.33-6.7-4.68-8.94-8.14-2.49-3.86-2.07-8.77-.59-12.91a53.3,53.3,0,0,1,3.71-7.64c.31-.56-.55-1.07-.87-.51Z" transform="translate(-839.3 -366.25)" style="fill:#2b211b"/><path d="M902.16,445.56a2.24,2.24,0,0,1,2.75,1.38c.43,1,.45,2.78-.52,3.5a2.9,2.9,0,0,1-3.27-.22,3.06,3.06,0,0,1-1.24-2.94c.19-1.23,1.28-2.76,2.7-2.44.63.14.89-.82.26-1-1.71-.4-3.23.95-3.76,2.49a4.11,4.11,0,0,0,5.45,5.14c1.59-.75,1.9-2.87,1.49-4.42a3.34,3.34,0,0,0-4.13-2.5c-.6.22-.34,1.18.27,1Z" transform="translate(-839.3 -366.25)" style="fill:#e0c"/></g></svg>