<svg xmlns="http://www.w3.org/2000/svg" xmlns:xlink="http://www.w3.org/1999/xlink" viewBox="0 0 454.12 634.58"><defs><clipPath id="clip-path" transform="translate(-404.03 -216)"><polygon points="524 498.97 465.09 450.03 455.99 471 475.45 531.42 499 589 514 580.15 552.73 556.04 524 498.97" style="fill:none"/></clipPath><clipPath id="clip-path-2" transform="translate(-404.03 -216)"><polygon points="723.09 512.97 782 464.03 791.11 485 771.64 545.42 748.09 603 733.09 594.15 694.36 570.04 723.09 512.97" style="fill:none"/></clipPath><clipPath id="clip-path-3" transform="translate(-404.03 -216)"><path d="M535,360c-5,6.16-8.31,10.15-10.64,16.64C522.44,382,521,386.38,518,400c-.43,2-6,14-3.4,40.69.64,6.59,2.7,14.85,3.4,25.31,2,30,4.56,34.83,7,44,4,15,3.28,21,8,37a148.52,148.52,0,0,0,10,25c7.55,15.1,17.11,45.74,85.5,102.7C655.93,650.55,690.66,615,708,563c3-9,5-14,8-24,2.56-8.48,8-27.32,14-63,10.11-59.63,6.52-74.67,5-80a207.89,207.89,0,0,0-7-21c-13.23-32.2-42-50-42-50-38.45-23.78-81-11.62-92-8C594,317,561.43,327.73,535,360Z" style="fill:none"/></clipPath><clipPath id="clip-path-4" transform="translate(-404.03 -216)"><path d="M550.91,344.54a713.74,713.74,0,0,0,158.37,6.68c1.81-.12,4-.51,4.63-2.2a4.83,4.83,0,0,0,0-2.56l-6.16-35.25c-1.94-11.12-3.89-22.28-7.36-33-2.13-6.59-4.82-13-7.51-19.37l-14.42-34.25a9.05,9.05,0,0,0-1.76-3c-1.92-2-5.05-1.8-7.78-1.52l-53.84,5.58c-5.42.56-11.11,1.22-15.58,4.35-7.85,5.5-9.18,16.32-10.93,25.74-2.66,14.38-32.92,76.12-38.08,89.8" style="fill:none"/></clipPath></defs><g id="Layer_34" data-name="Layer 34"><rect x="160.47" y="377.5" width="122" height="135" style="fill:#512600"/></g><g id="Layer_35" data-name="Layer 35"><path d="M536.62,849.6a529.29,529.29,0,0,1-117.51-20.11c-6.08-1.77-13-4.51-14.72-10.61a13,13,0,0,1,.75-8.15c5.13-13,22.92-19.07,24.49-32.91.35-3.18-.25-6.44.41-9.57,1.7-8.18,10.7-12.16,18.25-15.74,41.24-19.54,68.32-61.73,109.62-81.15,3.58-1.68,7.34-3.2,11.3-3.33a32.36,32.36,0,0,1,9.9,1.73c32.85,9.44,68.41,22.17,100,9.07,4.53-1.87,8.93-4.28,13.77-5,12.3-1.85,23.47,7.46,30.84,17.47s13.24,21.69,23.6,28.56c8,5.3,18,7.24,25.32,13.46,8,6.82,11.4,17.64,18.41,25.48,8.18,9.14,20.37,13.33,30.91,19.59a85.43,85.43,0,0,1,33.69,37.26c1.7,3.65,3.16,7.72,2.24,11.64-2,8.48-12.81,10.71-21.51,11.24l-81.72,5c-22,1.34-44,2.68-66,1.29-14.68-.93-29.31-3.08-44-3.1-38.62-.06-61.79,12.6-100.11,7.82Z" transform="translate(-404.03 -216)" style="fill:#38002a"/></g><g id="Layer_24" data-name="Layer 24"><g style="clip-path:url(#clip-path)"><g id="Layer_25" data-name="Layer 25"><path d="M520,598l51.26-47L560,487l-86-56-52.17,39.45S489.2,598.92,490.1,600,520,598,520,598Z" transform="translate(-404.03 -216)" style="fill:#8d5100"/></g><g id="Layer_26" data-name="Layer 26"><path d="M532,628" transform="translate(-404.03 -216)" style="fill:#f4c100"/><polygon points="89.97 371 137.97 341.11 141.7 358.41 127.61 371 92.51 380.05 89.97 371" style="fill:#b88500"/><path d="M515,514" transform="translate(-404.03 -216)" style="fill:#0d0300"/><path d="M527,505" transform="translate(-404.03 -216)" style="fill:#0d0300"/></g><g id="Layer_27" data-name="Layer 27"><path d="M527,514c-14.58-19.67-34.43-29.26-48-34a19.19,19.19,0,0,0-4,9c-1.86,12.67,10.67,26.56,24,29a25.4,25.4,0,0,0,9,0,81.15,81.15,0,0,0-5,41c6.33,1.67,13,11,28,0,4.54-1.59-16.52-19.51-13-28C523.27,518.3,533.78,523.15,527,514Z" transform="translate(-404.03 -216)" style="fill:#562600"/><path d="M556,607" transform="translate(-404.03 -216)" style="fill:#562600"/></g></g></g><g id="Layer_24_copy" data-name="Layer 24 copy"><g style="clip-path:url(#clip-path-2)"><g id="Layer_25_copy" data-name="Layer 25 copy"><path d="M727.09,612l-51.26-47,11.26-64,86-56,52.17,39.45S757.9,612.92,757,614,727.09,612,727.09,612Z" transform="translate(-404.03 -216)" style="fill:#8d5100"/></g><g id="Layer_26_copy" data-name="Layer 26 copy"><path d="M715.09,642" transform="translate(-404.03 -216)" style="fill:#f4c100"/><polygon points="349.06 385 301.06 355.11 297.32 372.41 311.42 385 346.51 394.05 349.06 385" style="fill:#b88500"/><path d="M732.09,528" transform="translate(-404.03 -216)" style="fill:#0d0300"/><path d="M720.09,519" transform="translate(-404.03 -216)" style="fill:#0d0300"/></g><g id="Layer_27_copy" data-name="Layer 27 copy"><path d="M720.09,528c14.58-19.67,34.43-29.26,48-34a19.08,19.08,0,0,1,4,9c1.86,12.67-10.67,26.56-24,29a25.4,25.4,0,0,1-9,0,81.15,81.15,0,0,1,5,41c-6.33,1.67-13,11-28,0-4.54-1.59,16.52-19.51,13-28C723.82,532.3,713.31,537.15,720.09,528Z" transform="translate(-404.03 -216)" style="fill:#562600"/><path d="M556,607" transform="translate(-404.03 -216)" style="fill:#562600"/></g></g></g><g id="Layer_1" data-name="Layer 1"><path d="M535,360c-5,6.16-8.31,10.15-10.64,16.64C522.44,382,521,386.38,518,400c-.43,2-6,14-3.4,40.69.64,6.59,2.7,14.85,3.4,25.31,2,30,4.56,34.83,7,44,4,15,3.28,21,8,37a148.52,148.52,0,0,0,10,25c7.55,15.1,17.11,45.74,85.5,102.7C655.93,650.55,690.66,615,708,563c3-9,5-14,8-24,2.56-8.48,8-27.32,14-63,10.11-59.63,6.52-74.67,5-80a207.89,207.89,0,0,0-7-21c-13.23-32.2-42-50-42-50-38.45-23.78-81-11.62-92-8C594,317,561.43,327.73,535,360Z" transform="translate(-404.03 -216)" style="fill:#975e00"/><rect x="197.97" y="361" width="51" height="71" rx="17.61" style="fill:#2b1100"/><g id="Layer_18" data-name="Layer 18"><path d="M596,615c-1-2.11-5.19-12-1-23,3.37-8.88,10.2-13.26,13-15,8.81-5.48,17.59-5.2,24-5s12,.38,18,4c1.66,1,10.93,6.55,13,18a26.78,26.78,0,0,1-4,19h0l-10-10-10,13-11-13-9,12-12-12Z" transform="translate(-404.03 -216)" style="fill:#c39500"/><path d="M664,614" transform="translate(-404.03 -216)" style="fill:#2b1100"/></g><path d="M625.4,484.17,602.5,533.5l5.09,11.16,8.49,18.6L628.5,590.5l24-62c-2.1-11.72-6.39-18.73-10-23-2-2.33-4.12-4.3-8-9A138.56,138.56,0,0,1,625.4,484.17Z" transform="translate(-404.03 -216)" style="fill:#4e2200"/><g id="Layer_15" data-name="Layer 15"><polygon points="223.97 373.5 222.97 286.5 197.97 316.5 206.14 336.18 216.97 345 212.68 350.54 223.97 373.5" style="fill:#ffdd54"/><polygon points="223.97 373.5 248.26 313.03 223.97 288.03 223.97 373.5" style="fill:#673500"/></g><path d="M641.5,503.5" transform="translate(-404.03 -216)" style="fill:none;stroke:#000;stroke-miterlimit:10"/><path d="M613.5,543.5" transform="translate(-404.03 -216)" style="fill:none;stroke:#000;stroke-miterlimit:10"/></g><g id="Layer_21" data-name="Layer 21"><path d="M628.5,674.7" transform="translate(-404.03 -216)" style="fill:#ffb17f"/></g><g id="Layer_9" data-name="Layer 9"><g style="clip-path:url(#clip-path-3)"><g id="Layer_10" data-name="Layer 10"><polygon points="127.97 346 157.97 361.09 223.47 287.5 286.97 355 330.98 297 263.95 287.5 221.37 248.44 181.92 300.92 130.34 277 109.89 234.03 127.97 346" style="fill:#513200"/></g><g id="Layer_13" data-name="Layer 13"><polyline points="223.47 287.5 221.37 248.44 186.95 294.22 197.86 316.27 198.47 317.5" style="fill:#c07e00"/></g><g id="Layer_19" data-name="Layer 19"><path d="M547,498l-13-5-16-34,14-35,86,10,6,31-38,52Z" transform="translate(-404.03 -216)" style="fill:#a57100"/></g><g id="Layer_19_copy" data-name="Layer 19 copy"><path d="M702,498c3.48-1.34,11.47,12.15,16.73,16.66a2.68,2.68,0,0,0,4.27-1.29c4.14-13.28,3-43.81,8-54.37l-14-35-86,10-6,31c12.67,17.33,31.33,23.67,44,41C682,499.67,689,504.33,702,498Z" transform="translate(-404.03 -216)" style="fill:#a57100"/></g><g id="Layer_20" data-name="Layer 20"><polygon points="160.97 398 153.97 330 137.97 321 129.97 277 113.97 243 99.49 329.58 160.97 398" style="fill:#dba500"/></g><g id="Layer_23" data-name="Layer 23"><polygon points="278.98 398 288.47 329 315.05 303.17 326.97 243 332.97 224 320.97 385 278.98 398" style="fill:#b88a00"/></g><g id="Layer_14" data-name="Layer 14"><polygon points="248.04 313.61 255.38 279.64 221.37 248.44 223.47 287.5 248.04 313.61" style="fill:#4e2000"/></g><g id="Layer_12" data-name="Layer 12"><path d="M585,504c1.73-5.74-13.31-11.55-20-15-7.56-3.89-20.62-6.6-26,0-3.3,4.06,1.92,14.64,2,15,1.89,8.08,31.85,24,35,23C582,525,583.07,510.4,585,504Z" transform="translate(-404.03 -216)" style="fill:#100800"/><path d="M544,520a8.89,8.89,0,0,0-2,5c-.19,5.81,6.8,11.67,13,13,11.64,2.49,27.1-9.61,27-23,0-4.65-2-11.45-7-14C563.91,495.39,547.5,515.26,544,520Z" transform="translate(-404.03 -216)" style="fill:#100800"/></g><g id="Layer_16" data-name="Layer 16"><path d="M669,491c1.06-9.86,1.78-16.53,7-22,8.85-9.27,26.7-11,38-2,5.79,4.59,12,13.67,10,22-2.39,10.05-15.46,14-14,19,1,3.51,7.8,2.44,9,6,1.62,4.78-7.82,14.89-19,17-10.36,2-21.18-3.15-27-11C666.78,511.62,667.79,502.18,669,491Z" transform="translate(-404.03 -216)" style="fill:#2e1e00"/></g></g></g><g id="Layer_6_copy" data-name="Layer 6 copy"><g style="clip-path:url(#clip-path-4)"><g id="Layer_6" data-name="Layer 6"><path d="M550.91,344.54a713.74,713.74,0,0,0,158.37,6.68c1.81-.12,4-.51,4.63-2.2a4.83,4.83,0,0,0,0-2.56l-6.16-35.25c-1.94-11.12-3.89-22.28-7.36-33-2.13-6.59-4.82-13-7.51-19.37l-14.42-34.25a9.05,9.05,0,0,0-1.76-3c-1.92-2-5.05-1.8-7.78-1.52l-53.84,5.58c-5.42.56-11.11,1.22-15.58,4.35-7.85,5.5-9.18,16.32-10.93,25.74-2.66,14.38-32.92,76.12-38.08,89.8" transform="translate(-404.03 -216)" style="fill:#970c00"/></g><g id="Layer_8" data-name="Layer 8"><path d="M601.93,227.15c-2.82,2.33-5.88,5.12-6,8.78a8.48,8.48,0,0,0,3.53,6.66,19.47,19.47,0,0,0,7.13,3.1,58.61,58.61,0,0,0,25.45.87c2.63-.5,5.22-1.17,7.81-1.85,10.58-2.76,21.34-5.67,30.48-11.66,2.61-1.71,5.15-3.76,6.48-6.58s1.11-6.57-1.23-8.63c-2.08-1.83-5.13-1.89-7.9-1.82q-17.13.39-34.21,1.92a129.81,129.81,0,0,0-22,3.43,34.61,34.61,0,0,0-10.73,4.57" transform="translate(-404.03 -216)" style="fill:#ff5b3b"/></g></g></g><g id="Layer_3" data-name="Layer 3"><path d="M609.5,547.5" transform="translate(-404.03 -216)" style="fill:none;stroke:#000;stroke-miterlimit:10"/><path d="M619,545" transform="translate(-404.03 -216)" style="fill:#331400"/><path d="M613.93,558.55" transform="translate(-404.03 -216)" style="fill:#331400"/></g><g id="Layer_4" data-name="Layer 4"><circle cx="157.97" cy="297" r="20" style="fill:#ede8be"/><path d="M556.5,514.5c-4.11-1.84-7.22,1.35-4.64,5.18,3.65,4.92,11,.89,9.58-4.82-.73-3.17-3.11-6.59-6.43-7.22-5.57-1-9,4.47-7.73,9.52.61,3.29,3.24,6,6.07,7.52,7.4,3.31,11.84-1.39,12.27-8.57,0-.06,0-.3,0-.36s0-.06,0,0a1.16,1.16,0,0,0,.12.45l3.52-1.42a2.6,2.6,0,0,1,.15,1.07c-.51,10-7.94,16.38-17.54,11.6-5.62-3.08-9.06-9.85-6.77-16.06a8.85,8.85,0,0,1,15.51-2.35c2.42,3.14,3.89,8.1,1.07,11.45a6.57,6.57,0,0,1-10.67-.21c-2.93-4.25,1-9.22,5.49-5.79Z" transform="translate(-404.03 -216)" style="fill:#d01c00"/></g><g id="Layer_5" data-name="Layer 5"><circle cx="288.47" cy="280.5" r="25.5" style="fill:#ede8be"/><path d="M702.51,486.46c8.07,2.34,2.9,11.27-3.79,9.23-5.67-1.71-8.89-9.13-5.05-14,2.71-3.82,8.19-3.86,12.08-2,9.85,4.7,10.19,19.91,1.5,26-5.22,3.56-12.21,1.46-16.8-2.16a20.07,20.07,0,0,1-6.3-9c-3.6-7.57-.53-18.32,7.57-21.6a13.72,13.72,0,0,1,9.37-.2l-1.18,3.42c-8-2.89-14.21,4.06-14.29,11.8a11.92,11.92,0,0,0,1.12,5.51A16.85,16.85,0,0,0,698.91,505c11.66,2.73,16.83-14.59,9.38-21.84-3.35-3.75-10.4-5.36-13.85-1-3.63,4.4-.7,11.28,4.44,13a6,6,0,0,0,7-2.54c1.56-2.56-.75-5.59-3.4-6.12l0-.08Z" transform="translate(-404.03 -216)" style="fill:#ff3600"/></g><g id="Layer_17" data-name="Layer 17"><path d="M602.06,533.78" transform="translate(-404.03 -216)" style="fill:none;stroke:#0d0200;stroke-miterlimit:10"/><path d="M628.06,590.78" transform="translate(-404.03 -216)" style="fill:none;stroke:#0d0200;stroke-miterlimit:10"/><polygon points="233.61 350.89 229.97 345 238.37 337.64 233.61 350.89" style="fill:#0d0200"/></g><g id="Layer_33" data-name="Layer 33"><polygon points="197.97 194.97 221.37 148.69 248.26 193.45 197.97 194.97" style="fill:#9f00b8;stroke:#ff20ed;stroke-miterlimit:10"/></g></svg>