<svg xmlns="http://www.w3.org/2000/svg" xmlns:xlink="http://www.w3.org/1999/xlink" viewBox="0 0 410 413.08"><defs><clipPath id="clip-path" transform="translate(-701.5 -186.42)"><circle cx="902" cy="387" r="143" style="fill:none"/></clipPath><radialGradient id="radial-gradient" cx="820.84" cy="487.39" r="62.05" gradientTransform="matrix(1.26, 0.41, -0.7, 1.85, 134.89, -766.32)" gradientUnits="userSpaceOnUse"><stop offset="0" stop-color="#fff"/><stop offset="0" stop-color="#e6f1f4" stop-opacity="0.5"/><stop offset="0.46" stop-color="#512607" stop-opacity="0"/></radialGradient><radialGradient id="radial-gradient-2" cx="985.91" cy="277.01" r="59.4" gradientTransform="matrix(1.73, 0.15, -0.24, 2.85, -669.37, -634.6)" gradientUnits="userSpaceOnUse"><stop offset="0.05" stop-color="#fff"/><stop offset="1" stop-opacity="0.1"/></radialGradient><radialGradient id="radial-gradient-3" cx="932.65" cy="427.01" fx="917.4554114752941" fy="530.3174421647714" r="144.42" gradientTransform="translate(-777.6 472.59) rotate(-38.66) scale(1 1.05)" gradientUnits="userSpaceOnUse"><stop offset="0" stop-color="#fff"/><stop offset="0" stop-color="#2bafe2" stop-opacity="0.98"/><stop offset="1" stop-opacity="0.1"/></radialGradient><linearGradient id="linear-gradient" x1="1044.52" y1="597.63" x2="926.94" y2="516.08" gradientUnits="userSpaceOnUse"><stop offset="0" stop-color="#fff"/><stop offset="0" stop-color="#23677f"/><stop offset="1" stop-color="#512607"/></linearGradient><linearGradient id="linear-gradient-2" x1="237.6" y1="426.34" x2="189.81" y2="329.24" xlink:href="#linear-gradient"/><linearGradient id="linear-gradient-3" x1="441.6" y1="384.16" x2="132.87" y2="387.95" xlink:href="#linear-gradient"/><linearGradient id="linear-gradient-4" x1="914.86" y1="617.39" x2="892.5" y2="526.85" xlink:href="#linear-gradient"/></defs><g id="Layer_6" data-name="Layer 6"><ellipse cx="205" cy="399.58" rx="205" ry="13.5" style="fill:#1e0904;opacity:0.46"/></g><g id="Layer_2" data-name="Layer 2"><g style="clip-path:url(#clip-path)"><path d="M902,245a142,142,0,1,1-100.41,41.59A141.07,141.07,0,0,1,902,245m0-1a143,143,0,1,0,143,143A143,143,0,0,0,902,244Z" transform="translate(-701.5 -186.42)" style="fill:#fff"/><ellipse cx="823.38" cy="468.59" rx="53.57" ry="95.95" transform="translate(-570.94 928.35) rotate(-72.65)" style="fill:url(#radial-gradient)"/><ellipse cx="969.05" cy="298.74" rx="88.58" ry="127.42" transform="translate(-659.25 523.85) rotate(-41.08)" style="opacity:0.33;fill:url(#radial-gradient-2)"/><g id="Layer_4" data-name="Layer 4"><ellipse cx="215" cy="195.08" rx="157.5" ry="151.5" style="fill:url(#radial-gradient-3)"/></g></g></g><g id="Layer_3" data-name="Layer 3"><path d="M909.5,502.5l-142.44-.68a3.91,3.91,0,0,0-.06.68c0,13.44,64.33,24.5,142.5,24.5S1052,515.94,1052,502.5Z" transform="translate(-701.5 -186.42)" style="fill:url(#linear-gradient)"/><ellipse cx="204.5" cy="359.08" rx="161" ry="34.5" style="fill:url(#linear-gradient-2)"/><rect x="36" y="378.08" width="335" height="18" rx="5.41" style="stroke:#1e0904;stroke-miterlimit:10;fill:url(#linear-gradient-3)"/><path d="M1072.53,573H732.47a5.47,5.47,0,0,1-5.47-5.47L737,560c0-3-7.55-13-4.53-13h340.06c3,0-2.53,11-2.53,14l8,6.53A5.47,5.47,0,0,1,1072.53,573Z" transform="translate(-701.5 -186.42)" style="fill:url(#linear-gradient-4)"/></g><g id="Layer_5" data-name="Layer 5"><circle cx="69" cy="376.08" r="5" style="fill:#566864;stroke:#000e12;stroke-miterlimit:10"/><circle cx="116" cy="375.08" r="5" style="fill:#566864;stroke:#000e12;stroke-miterlimit:10"/><circle cx="195" cy="375.08" r="5" style="fill:#566864;stroke:#000e12;stroke-miterlimit:10"/><circle cx="257.5" cy="375.58" r="5.5" style="fill:#566864;stroke:#000e12;stroke-miterlimit:10"/><circle cx="315.5" cy="374.58" r="5.5" style="fill:#566864;stroke:#000e12;stroke-miterlimit:10"/><circle cx="346.5" cy="374.58" r="5.5" style="fill:#566864;stroke:#000e12;stroke-miterlimit:10"/><circle cx="45.5" cy="375.58" r="5.5" style="fill:#566864;stroke:#000e12;stroke-miterlimit:10"/></g></svg>