<svg xmlns="http://www.w3.org/2000/svg" viewBox="0 0 137.15 138.34"><g id="Layer_1" data-name="Layer 1"><path d="M873.83,445.66c.55,7.14-1.61,14.29-1,21.41a54.45,54.45,0,0,0,2.33,10.36,31.68,31.68,0,0,0,2.58,6.84c3.61,6.44,11,9.62,18.06,11.87a27.27,27.27,0,0,0,9.06,1.7c2.72-.09,5.45-.93,8.11-.35a20.09,20.09,0,0,1,5.36,2.54,35.79,35.79,0,0,0,21,4.38,8.13,8.13,0,0,0,3.91-1.17,8,8,0,0,0,2.34-3,34.55,34.55,0,0,0,2.68-24.47c-.77-2.88-1.91-5.67-2.39-8.62a43.79,43.79,0,0,1-.08-9.23,176.83,176.83,0,0,0,0-19.4,15.66,15.66,0,0,0-1.1-5.77c-1.3-2.78-4-4.61-6.86-5.82s-5.84-1.92-8.6-3.26c-1.35-.66-2.63-1.46-4-2a24.82,24.82,0,0,0-3.81-1l-9.35-1.9a58.86,58.86,0,0,0-9.13-1.38,49.71,49.71,0,0,0-8.61.5c-3,.38-6.46,1.13-7.91,3.81-.86,1.58-.81,3.48-1.38,5.18-.88,2.59-3.11,4.46-5.33,6.05s-4.61,3.11-6.08,5.42S872,444,874,445.85" transform="translate(-839.72 -366.25)" style="fill:#7a451e"/></g><g id="Layer_2" data-name="Layer 2"><path d="M952.47,466.46c-6.56,1.07-13,4.82-15.86,10.79a22.85,22.85,0,0,0-2,10.6,13.08,13.08,0,0,0,1.44,6.3c2.12,3.65,6.7,5,10.89,5.55a53,53,0,0,0,11.74.17,10.14,10.14,0,0,0,6.76-2.77c5.09-4.15,9.77-9.44,10.81-15.92a8.86,8.86,0,0,0,0-3.48,10.07,10.07,0,0,0-3.44-4.94,27.39,27.39,0,0,0-21.3-6.44" transform="translate(-839.72 -366.25)" style="fill:#562d0f"/></g><g id="Layer_4" data-name="Layer 4"><path d="M952.53,468.24a22.2,22.2,0,0,0,1.36,9.38,11.83,11.83,0,0,0,2.44,4.15c2.85,2.94,7.44,3.3,11.51,2.86A5.06,5.06,0,0,0,970,484c1.16-.72,1.6-2.16,2-3.48l3.43-12.81a14.21,14.21,0,0,0,.71-5.19c-.29-2.52-1.92-4.76-2.11-7.29-.3-4.17,3.33-8.46,1.44-12.18-.91-1.8-2.88-2.8-4.8-3.44C966,438.12,960.26,438.3,957,442a16.94,16.94,0,0,0-2.74,5.18,42.5,42.5,0,0,0-2.94,9.94,14.47,14.47,0,0,0,2,10" transform="translate(-839.72 -366.25)" style="fill:#7a4b2b"/></g><g id="Layer_5" data-name="Layer 5"><path d="M884.36,428.38c2.26,4,2.53,9.68-.92,12.73a11.16,11.16,0,0,1-4.86,2.26,23.62,23.62,0,0,1-19.88-4.47,13.54,13.54,0,0,1-5.16-7.59c-.61-3.06.61-6.61,3.38-8.05a8.37,8.37,0,0,1,5.92-.36,43.16,43.16,0,0,1,5.65,2.2A38,38,0,0,0,882.92,428" transform="translate(-839.72 -366.25)" style="fill:#562d0f"/></g><g id="Layer_6" data-name="Layer 6"><path d="M842.37,432.4a34.59,34.59,0,0,1-1.75,11.77c-.53,1.59-1.19,3.27-.76,4.89a5.16,5.16,0,0,0,3.61,3.36,13.49,13.49,0,0,0,5.11.27,10.4,10.4,0,0,0,4.25-1c2.2-1.2,3.32-3.68,4.3-6,1.9-4.5,3.85-9.21,3.5-14.08a21.54,21.54,0,0,0-2.44-8.06,9.48,9.48,0,0,0-3.68-4.4c-2.72-1.46-6.21-.34-8.55,1.68-3.14,2.7-4.81,7.63-2.53,11.08" transform="translate(-839.72 -366.25)" style="fill:#704528"/></g><g id="Layer_7" data-name="Layer 7"><path d="M886.92,413.57a13.16,13.16,0,0,0,5.89,15.4c2.29,1.25,5.35,1.68,7.36,0,1.57-1.3,2-3.47,2.42-5.47l1.52-8a44.74,44.74,0,0,0,1-7.45,44.15,44.15,0,0,0-.55-6.68L902.26,384a20,20,0,0,0-1.67-6.64c-1.48-2.89-4.25-4.87-7.07-6.47-2-1.14-4.73-2.08-6.5-.57a5.8,5.8,0,0,0-1.54,3.86c-.88,7.12-.51,14.32-.13,21.48l1,19.66" transform="translate(-839.72 -366.25)" style="fill:#562d0f"/><path d="M959.23,370.53c-4.41,2.21-8.93,4.5-12.22,8.18-4.06,4.53-5.77,10.62-8.43,16.09-3.49,7.19-8.71,13.41-12.44,20.48-1.32,2.51-2.46,5.46-1.44,8.11s3.94,4.09,6.75,4.53a16.26,16.26,0,0,0,12.94-3.64,41.94,41.94,0,0,0,5.29-6.07c5.15-6.47,11.6-12.26,14.31-20.08,1.63-4.7,1.76-9.78,1.45-14.75-.3-4.77-1.26-10-5.05-12.94" transform="translate(-839.72 -366.25)" style="fill:#562d0f"/></g><g id="Layer_8" data-name="Layer 8"><path d="M886.46,377.2a41.93,41.93,0,0,0,11.68,15.47c2.61,2.15,5.62,4,9,4.39s7.1-1.16,8.48-4.25a8.08,8.08,0,0,0,.31-5.23,5.39,5.39,0,0,0-1.23-2.51,15,15,0,0,0-3-1.92c-4.82-3.08-4.48-10.76-8.94-14.34-2-1.56-4.54-2.08-7-2.39a12,12,0,0,0-4,0,7.38,7.38,0,0,0-5.18,4.83,9.45,9.45,0,0,0,.63,7.18" transform="translate(-839.72 -366.25)" style="fill:#7a451e"/><path d="M959.17,401.51c1.69,3.5,5,6.41,8.9,6.7s8-2.72,8.07-6.61-3.26-6.8-4.68-10.37c-1.22-3.05-1-6.45-1-9.73s-.46-6.82-2.66-9.25a9.67,9.67,0,0,0-7.12-2.9c-2.61,0-5.44,1-6.68,3.31a9.72,9.72,0,0,0-.86,4.25,50.63,50.63,0,0,0,1,13.85,24.6,24.6,0,0,0,6.53,12.09" transform="translate(-839.72 -366.25)" style="fill:#7a451e"/><path d="M886.71,407.46c.82,0,1.57.71,2.31,1a11.17,11.17,0,0,0,2.27.67,21.77,21.77,0,0,0,5.46.48,10.91,10.91,0,0,0,8.13-3.82c.39-.5-.32-1.21-.71-.7a10.21,10.21,0,0,1-8.14,3.54,20.87,20.87,0,0,1-5.21-.63,7.55,7.55,0,0,1-2.14-.83,3.69,3.69,0,0,0-2-.73.5.5,0,0,0,0,1Z" transform="translate(-839.72 -366.25)" style="fill:#2b211b"/><path d="M937.18,397.56c4.13,6.56,10.38,12.26,18.42,12.91.65,0,.64-1,0-1-7.66-.62-13.63-6.18-17.55-12.41-.34-.54-1.21,0-.87.5Z" transform="translate(-839.72 -366.25)" style="fill:#2b211b"/><path d="M956.61,396c.13-1.57-.23-3.33.44-4.81a4.76,4.76,0,0,1,3.39-2.31,22.9,22.9,0,0,1,4.5-.7,8.3,8.3,0,0,1,4.8.93.5.5,0,0,0,.51-.87,9.3,9.3,0,0,0-5.31-1.06,22.72,22.72,0,0,0-5.11.83,5.61,5.61,0,0,0-3.59,2.55c-.86,1.68-.48,3.63-.63,5.44-.05.64.95.64,1,0Z" transform="translate(-839.72 -366.25)" style="fill:#2b211b"/><path d="M897.26,390a5.26,5.26,0,0,1-2.12-2.19,7.36,7.36,0,0,1-.57-3.38,4.6,4.6,0,0,1,.78-3.28,4.73,4.73,0,0,1,2.49-1.25,15.5,15.5,0,0,1,6.1-.39,5.7,5.7,0,0,1,2.76,1.25,7,7,0,0,0,2.27,1.7c.61.21.87-.75.26-1-.88-.31-1.45-1.15-2.17-1.71a6.26,6.26,0,0,0-2.31-1.11,14,14,0,0,0-5.51,0c-1.59.22-3.38.54-4.54,1.75-1.37,1.41-1.26,3.76-1.07,5.58a6.2,6.2,0,0,0,3.13,4.89.5.5,0,0,0,.5-.86Z" transform="translate(-839.72 -366.25)" style="fill:#2b211b"/><path d="M953.67,467.05c3.54,2.36,8.29,2.53,12.41,2.31a11.66,11.66,0,0,0,5.87-2,31.42,31.42,0,0,0,4.77-4.15.5.5,0,0,0-.7-.71,30.54,30.54,0,0,1-4.49,3.94,10.81,10.81,0,0,1-5.69,1.9c-3.89.16-8.31.06-11.66-2.18-.54-.36-1,.51-.51.86Z" transform="translate(-839.72 -366.25)" style="fill:#2b211b"/><path d="M946.2,468.16c-2.51,5.13-.54,11.68,2.42,16.2A17.94,17.94,0,0,0,962,492.75a15,15,0,0,0,9.09-2.06c.54-.33,0-1.2-.51-.86a14.89,14.89,0,0,1-15-.09,19.76,19.76,0,0,1-8.79-11.82c-.86-3-1.14-6.37.27-9.25.29-.58-.58-1.08-.86-.51Z" transform="translate(-839.72 -366.25)" style="fill:#2b211b"/><path d="M873.46,427a16.78,16.78,0,0,1-1.38,9.89c-1.19,2.62-3.4,5-6.42,5.31-.63.06-.64,1.06,0,1,3.3-.31,5.83-2.72,7.2-5.61a18.08,18.08,0,0,0,1.57-10.85c-.12-.64-1.08-.37-1,.26Z" transform="translate(-839.72 -366.25)" style="fill:#2b211b"/><path d="M843.12,432.41c2-2.43,5.69-2.5,8.58-2a11.54,11.54,0,0,1,7.87,4.52c.36.53,1.23,0,.87-.51a12.63,12.63,0,0,0-8.66-5c-3.18-.49-7.14-.36-9.37,2.31-.41.49.3,1.2.71.71Z" transform="translate(-839.72 -366.25)" style="fill:#2b211b"/><path d="M874,457.1c5.76,7.94,15.69,10.77,25,11.44,2.77.19,5.54.24,8.3.24a74,74,0,0,0,8.16-.32c5.25-.57,10.2-2.53,15.41-3.31a23,23,0,0,1,4.46-.26c1.28.06,2.54.28,3.81.43,2.19.26,4.61.28,6.27-1.4a.5.5,0,0,0-.71-.71c-1.46,1.48-3.66,1.33-5.56,1.11a31.11,31.11,0,0,0-6.95-.33c-5,.49-9.77,2.36-14.73,3.2a52.15,52.15,0,0,1-8,.58c-2.61,0-5.23,0-7.85-.09a48.94,48.94,0,0,1-14.85-2.54,25.3,25.3,0,0,1-11.93-8.55c-.37-.51-1.24,0-.86.51Z" transform="translate(-839.72 -366.25)" style="fill:#2b211b"/><path d="M915.15,468.22c2.3,4.18,4.76,8.61,4.9,13.5a12.67,12.67,0,0,1-1.34,6.29,13.57,13.57,0,0,1-4.33,4.46,20.46,20.46,0,0,0-5.06,4.44c-.37.53.49,1,.87.51,2.51-3.49,7.06-4.81,9.24-8.65,2.31-4.06,1.88-9,.35-13.28a56.9,56.9,0,0,0-3.77-7.78c-.31-.56-1.18,0-.86.51Z" transform="translate(-839.72 -366.25)" style="fill:#2b211b"/><path d="M914.28,444.59a3.23,3.23,0,0,0-3.89,1.87c-.64,1.41-.6,3.66.71,4.7a3.8,3.8,0,0,0,4.46-.08,4.1,4.1,0,0,0,1.69-4.12c-.32-1.78-2-3.53-3.92-3.08-.63.14-.36,1.1.27,1,1.23-.28,2.28.92,2.59,2a3.11,3.11,0,0,1-4,3.82c-1.17-.52-1.32-2.14-1-3.24a2.33,2.33,0,0,1,2.91-1.85c.6.21.87-.75.26-1Z" transform="translate(-839.72 -366.25)" style="fill:#e0c"/></g></svg>