<svg xmlns="http://www.w3.org/2000/svg" xmlns:xlink="http://www.w3.org/1999/xlink" viewBox="0 0 2122.76 695.15" width='100%' height='auto'><defs><linearGradient id="linear-gradient" x1="-115.84" y1="-112.66" x2="1948.2" y2="665.62" gradientUnits="userSpaceOnUse"><stop offset="0.23"/><stop offset="0.56" stop-color="#703910"/><stop offset="1" stop-color="#32919b"/></linearGradient><clipPath id="clip-path" transform="translate(101.21 -469.52)"><polygon points="1920 1080 0 1080 0 522 100.47 521.91 109 530 128.03 521.88 351.56 521.67 355 528 367.23 521.66 630.2 521.41 641 531 657.26 521.38 866.37 521.19 879 527 885.75 521.17 1067 521 1077 531 1084.08 521 1323.08 521 1344 529 1352.29 521 1616.64 521 1642 531 1647.74 521 1919 521 1920 1080" style="fill:none;opacity:0.48"/></clipPath></defs><g id="Layer_1" data-name="Layer 1"><polygon points="2021.21 610.48 101.21 610.48 101.21 52.48 201.69 52.39 210.21 60.48 229.25 52.36 452.77 52.15 456.21 58.48 468.44 52.14 731.41 51.89 742.21 61.48 758.47 51.86 967.58 51.67 980.21 57.48 986.96 51.65 1168.21 51.48 1178.21 61.48 1185.3 51.48 1424.29 51.48 1445.21 59.48 1453.5 51.48 1717.86 51.48 1743.21 61.48 1748.96 51.48 2020.21 51.48 2021.21 610.48" style="fill:url(#linear-gradient)"/></g><g id="Layer_2" data-name="Layer 2"><line x1="980.71" y1="58.48" x2="980.71" y2="610.48" style="fill:none;stroke:#000;stroke-miterlimit:10"/><line x1="1395.71" y1="609.98" x2="1178.71" y2="61.98" style="fill:none;stroke:#000;stroke-miterlimit:10"/><line x1="1879.71" y1="609.98" x2="1445.71" y2="59.98" style="fill:none;stroke:#000;stroke-miterlimit:10"/><line x1="1743.71" y1="61.98" x2="2020.71" y2="274.98" style="fill:none;stroke:#000;stroke-miterlimit:10"/><line x1="742.71" y1="61.98" x2="571.71" y2="609.98" style="fill:none;stroke:#000;stroke-miterlimit:10"/><line x1="456.71" y1="58.98" x2="107.71" y2="523.98" style="fill:none;stroke:#000;stroke-miterlimit:10"/><line x1="209.22" y1="63.91" x2="100.71" y2="217.98" style="fill:none;stroke:#000;stroke-miterlimit:10"/></g><g id="Layer_4" data-name="Layer 4"><g style="clip-path:url(#clip-path)"><path d="M392.8,514.44c-14.54,61.95-70.29,108.48-82.52,170.92-1.38,7-2.3,14.48-6.42,20.35-3.44,4.91-8.73,8.12-13.63,11.58a119.89,119.89,0,0,0-28.74,28.77c-14.84,21.06-22.47,46.28-35,68.82C211,843,188.27,866.32,166.52,890q-30.3,32.94-58.76,67.51c-30.23,36.75-59.49,76.1-71.94,122" transform="translate(101.21 -469.52)" style="fill:none;stroke:#280702;stroke-miterlimit:10;opacity:0.48"/><path d="M111.73,1099.08q36.49-72.74,79.33-142.08c30.84-49.92,64.3-98.82,85.56-153.51,3.25-8.35,6.31-17,12.06-23.89a76.21,76.21,0,0,1,9.41-8.9l39.14-32.91c4.07-3.43,8.28-7,10.46-11.87,2-4.43,2.09-9.45,2-14.3-.57-22-4.94-44.85,2.93-65.38,3.51-9.13,9.25-17.2,14.75-25.3a611.34,611.34,0,0,0,72.78-146" transform="translate(101.21 -469.52)" style="fill:none;stroke:#280702;stroke-miterlimit:10;opacity:0.48"/><path d="M214.64,1093.46c16.12-18.52,14.14-49.23,33.09-64.85,15.34-12.64,37.71-10,57-14.7,21.64-5.31,39.76-20.37,53.73-37.73,17.1-21.24,29.28-47.19,30.53-74.44s-9.5-55.65-31.09-72.31c-2.61-2-5.49-4-6.76-7-1.17-2.77-.78-5.93-.26-8.89,6.4-36.91,28.8-70.58,29.33-108,.24-17.11-4-35.27,3.51-50.66,5.76-11.87,17.45-19.66,25.14-30.38,4.48-6.26,7.53-13.42,10.48-20.53q25-60,44.66-122" transform="translate(101.21 -469.52)" style="fill:none;stroke:#280702;stroke-miterlimit:10;opacity:0.48"/><path d="M250.74,948.42c-.71,3.33-1.22,6.88,0,10.06,2.79,7.39,12.58,8.65,20.48,8.42,18.82-.54,39.59-3.64,51.71-18.06,5.57-6.63,8.64-15,11.32-23.19q3.52-10.77,6.4-21.72c2.18-8.27,4.06-17.18,1.13-25.22-4.12-11.33-19.68-23-29.44-29.51-15.38-10.27-15.37-4.81-22.09,11C277.76,889.54,257.42,916.89,250.74,948.42Z" transform="translate(101.21 -469.52)" style="fill:none;stroke:#280702;stroke-miterlimit:10;opacity:0.48"/><path d="M330.45,1095.13a207.57,207.57,0,0,1,4.36-60.37c1.87-8.45,4.55-17.24,10.89-23.14,9.2-8.55,23.62-8.83,33.64-16.4,17-12.82,13.8-38.42,13.39-59.7C392,895.6,407,856.59,405.85,816.68c-.44-14.86-3.15-29.7-1.93-44.53.91-11.06,4-21.82,7.05-32.5l29.58-103.22c5.59-19.5,11.33-39.32,22.37-56.33,8.67-13.36,20.93-26,21.48-41.88" transform="translate(101.21 -469.52)" style="fill:none;stroke:#280702;stroke-miterlimit:10;opacity:0.48"/><path d="M540.26,524.87C527.64,582,515,639.33,509.51,697.6,506,734.77,505.3,772.86,492.68,808c-12.42,34.58-36.41,67.2-33.35,103.82.6,7.16,2.25,14.24,2.36,21.42.11,7.79-1.59,15.51-3.83,23a162.7,162.7,0,0,1-41.77,69.14c-7.39,7.25-15.56,13.88-21.36,22.45s-9,19.79-5,29.37" transform="translate(101.21 -469.52)" style="fill:none;stroke:#280702;stroke-miterlimit:10;opacity:0.48"/><path d="M604.38,500.34q-10.67,42.1-24.69,83.25" transform="translate(101.21 -469.52)" style="fill:none;stroke:#280702;stroke-miterlimit:10;opacity:0.48"/><path d="M537.36,508.86c-14.88,27.3-30,55.23-35.2,85.88-2.45,14.38-2.92,29.85-11.13,41.91-7.14,10.47-20.26,19.66-17.79,32.09" transform="translate(101.21 -469.52)" style="fill:none;stroke:#280702;stroke-miterlimit:10;opacity:0.48"/><path d="M554.47,719.07c2.14,53.55-19.72,104.74-40,154.34Q467.58,988.1,429.22,1106" transform="translate(101.21 -469.52)" style="fill:none;stroke:#280702;stroke-miterlimit:10;opacity:0.48"/><path d="M299.34,890.09q-8.74,19.56-15.84,39.8c8.7,4.64,20.13-.5,25.38-8.84s5.71-18.8,5.07-28.64c-.16-2.37-.4-4.84-1.66-6.85-2.28-3.66-7.52-4.68-11.51-3s-6.83,5.33-8.53,9.29" transform="translate(101.21 -469.52)" style="fill:none;stroke:#280702;stroke-miterlimit:10;opacity:0.48"/><path d="M205.43,982.75c-11.14,22.7-35.71,38-41.91,62.57-1.55,6.15-1.83,12.57-3.2,18.77a54.64,54.64,0,0,1-12.66,24.58" transform="translate(101.21 -469.52)" style="fill:none;stroke:#280702;stroke-miterlimit:10;opacity:0.48"/><path d="M246.86,992.77l-13,24.18c-5.93,11-11.89,22.1-19.59,32-9.55,12.25-21.88,22.83-27.63,37.27-1,2.6.09,7.15,2.59,5.89" transform="translate(101.21 -469.52)" style="fill:none;stroke:#280702;stroke-miterlimit:10;opacity:0.48"/><path d="M274.66,987.71c14.78,3,29.54-4.12,42.94-11.06l4.53-2.34c1.88-1,3.75-1.94,5.57-3,19.42-11.35,31.64-34,30.47-56.46" transform="translate(101.21 -469.52)" style="fill:none;stroke:#280702;stroke-miterlimit:10;opacity:0.48"/><path d="M141.21,965q-55.54,94.31-118.08,184.26" transform="translate(101.21 -469.52)" style="fill:none;stroke:#280702;stroke-miterlimit:10;opacity:0.48"/><path d="M382,530.41l-26,37.86c-8.44,12.29-16.92,24.68-22.88,38.35" transform="translate(101.21 -469.52)" style="fill:none;stroke:#280702;stroke-miterlimit:10;opacity:0.48"/><path d="M579.5,1010.27A271.83,271.83,0,0,1,563,1077.93a3.11,3.11,0,0,1,2.41-3.89" transform="translate(101.21 -469.52)" style="fill:none;stroke:#280702;stroke-miterlimit:10;opacity:0.48"/><path d="M611.93,1088.76c21.3-52.29,27.77-109.24,34-165.36,2.49-22.31,4.37-47-9.09-65-2.1-2.81-4.61-5.52-5.38-8.94-.85-3.81.63-7.7,2-11.35,35.21-93.51,15.34-199,38-296.29" transform="translate(101.21 -469.52)" style="fill:none;stroke:#280702;stroke-miterlimit:10;opacity:0.48"/><path d="M712.77,532.35q2.76,43.62,2.05,87.37c-.63,38.72-3.31,77.44-1.59,116.13,1,21.6,3.29,43.15,3.47,64.78.15,16.89-1,33.77-2.33,50.62q-8.85,114.68-25.84,228.54" transform="translate(101.21 -469.52)" style="fill:none;stroke:#280702;stroke-miterlimit:10;opacity:0.48"/><path d="M776.27,517.14c-3.57,52.51,5.63,104.92,10.43,157.33,7.5,82,4.21,164.65.92,247-1,23.9-1.92,47.88-5.73,71.5-2.46,15.17-6.09,30.26-6.3,45.63s3.43,31.49,13.74,42.9" transform="translate(101.21 -469.52)" style="fill:none;stroke:#280702;stroke-miterlimit:10;opacity:0.48"/><path d="M852.27,512.57c-2.33,13.18,2.78,26.8.54,40-.85,5-2.74,9.79-4.13,14.68-3,10.73-3.64,22-4.18,33.1a3482.3,3482.3,0,0,0,10.7,486.94" transform="translate(101.21 -469.52)" style="fill:none;stroke:#280702;stroke-miterlimit:10;opacity:0.48"/><path d="M947.62,1116.35A633.44,633.44,0,0,0,939.34,945c-10.89-58.4-30-115.51-33.78-174.8-5.2-82.4,19.56-166.15,2.57-247" transform="translate(101.21 -469.52)" style="fill:none;stroke:#280702;stroke-miterlimit:10;opacity:0.48"/><path d="M926.56,518.27l26.2,47.18c9.62,17.3,19.33,34.84,24.39,54,12.82,48.45-5.62,99.6-2.48,149.62,2.65,42.28,20.64,82.39,24,124.62,2.87,35.78-4.87,71.61-4.14,107.49.57,28.11,6.33,55.83,12.06,83.36" transform="translate(101.21 -469.52)" style="fill:none;stroke:#280702;stroke-miterlimit:10;opacity:0.48"/><path d="M950.49,638.79l-10.77,47.57c3.62,3.46,10,2,13.35-1.73s4.5-8.86,5.51-13.76c2.27-11,3.4-24.89-6.07-30.9" transform="translate(101.21 -469.52)" style="fill:none;stroke:#280702;stroke-miterlimit:10;opacity:0.48"/><path d="M1001.75,518.9c13.77,84,27.57,168.12,47.82,250.8,3.63,14.86,7.49,29.73,9,44.95,1.67,16.46.63,33.21,4,49.42,3.58,17.5,12.09,33.62,16.53,50.93,4.17,16.25,4.66,33.18,6.64,49.84,4.9,41.17,18.92,80.63,32.84,119.69" transform="translate(101.21 -469.52)" style="fill:none;stroke:#280702;stroke-miterlimit:10;opacity:0.48"/><path d="M1036.39,506.5c11.37,73.88,62.24,135.85,81.94,208,4.88,17.84,7.8,36.15,10.43,54.46,8,55.65,13.52,111.76,25.62,166.66s31.2,109.12,63.91,154.85" transform="translate(101.21 -469.52)" style="fill:none;stroke:#280702;stroke-miterlimit:10;opacity:0.48"/><path d="M1123.94,519.17l75.45,111.74c16.14,23.91,32.35,47.92,45.14,73.79,9.14,18.48,16.5,37.83,26.47,55.88,5.75,10.4,12.4,20.44,16.23,31.7,9.09,26.79,1.09,56.79,8.45,84.11,5,18.52,16.64,34.39,27,50.56,16.46,25.79,30,53.32,43.71,80.66q17.36,34.55,35.06,68.92l9.7,18.94,35.31,69" transform="translate(101.21 -469.52)" style="fill:none;stroke:#280702;stroke-miterlimit:10;opacity:0.48"/><path d="M1175.86,516.36l85.92,108.5c8.15,10.29,16.36,20.68,22.25,32.41,6,12.05,9.49,25.2,13.16,38.17a998.07,998.07,0,0,0,78.2,195.13c6.91,13.06,14.15,26,18.94,40,5.49,16.06,7.64,33.17,13.83,49a103.32,103.32,0,0,0,54.25,56.37l-1.6,7.7" transform="translate(101.21 -469.52)" style="fill:none;stroke:#280702;stroke-miterlimit:10;opacity:0.48"/><path d="M1248.46,521.58a1209.9,1209.9,0,0,0,164.21,216.61c2.53,2.65,5.15,5.44,6.19,8.95s.39,7.08.12,10.64c-1.42,18.68,7.2,36.53,16.29,52.9a648.23,648.23,0,0,0,40.81,64.3c4.47,6.21,9.12,12.48,11.52,19.75,1.78,5.38,2.25,11.09,2.87,16.72,7.93,72.12,43.84,140.8,98.53,188.47" transform="translate(101.21 -469.52)" style="fill:none;stroke:#280702;stroke-miterlimit:10;opacity:0.48"/><path d="M1283.85,519.24c70.47,79.07,141.51,158.94,193.41,251.26,13.44,23.93,25.69,48.81,43.21,69.93,7,8.46,14.84,16.28,21.1,25.32,9.35,13.5,14.84,29.22,20.74,44.55,12.48,32.5,27.17,64.1,42,95.61q13.21,28.11,26.53,56.17c9.13,19.3,19.48,39.89,38.4,49.77" transform="translate(101.21 -469.52)" style="fill:none;stroke:#280702;stroke-miterlimit:10;opacity:0.48"/><path d="M1405.54,509.72c.45,10.37,7.65,19.06,14.48,26.88l200.73,229.82c9.93,11.37,19.93,22.83,27.59,35.84,5.36,9.11,9.51,18.87,14,28.45A486.84,486.84,0,0,0,1758,968.27c9.21,9.29,18.8,18.2,28,27.51a463.82,463.82,0,0,1,48.12,57.32" transform="translate(101.21 -469.52)" style="fill:none;stroke:#280702;stroke-miterlimit:10;opacity:0.48"/><path d="M1483.24,513.1l107.78,101c38.78,36.35,78.51,74,100.61,122.35,12.28,26.87,18.62,56.09,30.07,83.32,18,42.85,48,79.38,77.62,115.23l21.74,26.34,50.68,61.39c22.28,27,45.13,54.49,75,72.76" transform="translate(101.21 -469.52)" style="fill:none;stroke:#280702;stroke-miterlimit:10;opacity:0.48"/><path d="M1565.33,521.71c26.53,36.38,68.88,56.91,107.21,80.55A603.62,603.62,0,0,1,1858.72,782.8c4.19,6.34,8.38,13.16,8.67,20.74.8,21.25,14.43,39.65,28.26,55.79a636.73,636.73,0,0,0,67.14,67.4c1.42,1.22,3.51,1.08,5.37,1.31s4,1.41,3.87,3.28-4,1.27-3-.29" transform="translate(101.21 -469.52)" style="fill:none;stroke:#280702;stroke-miterlimit:10;opacity:0.48"/><path d="M1559.49,532a832.09,832.09,0,0,1,109.92,122.12c25.54,34.75,48.45,71.57,77.2,103.7,6.91,7.72,14.25,15.31,18.82,24.61,4.45,9.06,6,19.22,8.09,29.1a252.78,252.78,0,0,0,86.24,141.76c8.3,6.8,17.1,13.13,24.19,21.19,13.65,15.52,24.09,39,44.74,39.7" transform="translate(101.21 -469.52)" style="fill:none;stroke:#280702;stroke-miterlimit:10;opacity:0.48"/><path d="M1786.76,767.49a37.3,37.3,0,0,0,28.39,12.92c3.34-10-4.46-20-11.7-27.69l-25.71-27.3c-2.65-2.81-6.25-5.88-9.9-4.6-5.45,10-2.51,22.91,4.25,32.07s16.69,15.38,26.44,21.27" transform="translate(101.21 -469.52)" style="fill:none;stroke:#280702;stroke-miterlimit:10;opacity:0.48"/><path d="M1872.37,745.62q49.26,50.91,97.21,103.08" transform="translate(101.21 -469.52)" style="fill:none;stroke:#280702;stroke-miterlimit:10;opacity:0.48"/><path d="M1691.58,515.49c44.89,14.61,78.48,51.18,117.15,78.28,60.87,42.65,136.77,63.17,190.61,114.41,10.53,10,20.55,22.2,21.71,36.7" transform="translate(101.21 -469.52)" style="fill:none;stroke:#280702;stroke-miterlimit:10;opacity:0.48"/><path d="M1645.16,516.13c48.35,46.52,111.25,74.34,166.52,112.38,27.63,19,53.36,40.6,79.06,62.16l79.43,66.66" transform="translate(101.21 -469.52)" style="fill:none;stroke:#280702;stroke-miterlimit:10;opacity:0.48"/><path d="M1773.51,521.21a1270.87,1270.87,0,0,0,191.29,130" transform="translate(101.21 -469.52)" style="fill:none;stroke:#280702;stroke-miterlimit:10;opacity:0.48"/><path d="M1840.81,532.62A1325.79,1325.79,0,0,0,1985,630.21" transform="translate(101.21 -469.52)" style="fill:none;stroke:#280702;stroke-miterlimit:10;opacity:0.48"/><path d="M1896.08,533.73a397.18,397.18,0,0,0,73,46.6" transform="translate(101.21 -469.52)" style="fill:none;stroke:#280702;stroke-miterlimit:10;opacity:0.48"/><path d="M320.92,519.62,263.19,624.3c-14.11,25.57-28.29,51.26-46.25,74.28-13.05,16.72-28,31.88-42.84,47-15.36,15.6-30.72,31.2-46.91,45.93-10.38,9.44-21.24,18.68-28.89,30.44-6.46,9.95-10.39,21.32-16.23,31.64-22.49,39.72-71.37,60.76-88.75,103" transform="translate(101.21 -469.52)" style="fill:none;stroke:#280702;stroke-miterlimit:10;opacity:0.48"/><path d="M242.37,502c-41.58,53.69-67.56,117.6-103.11,175.45-49,79.75-117.47,150.74-140,241.58l-7.32-.81" transform="translate(101.21 -469.52)" style="fill:none;stroke:#280702;stroke-miterlimit:10;opacity:0.48"/><path d="M167.9,506.41A2219.39,2219.39,0,0,1,18.1,734.25c-27.17,36.27-55.57,71.87-77.85,111.33l14.31-17" transform="translate(101.21 -469.52)" style="fill:none;stroke:#280702;stroke-miterlimit:10;opacity:0.48"/><path d="M88,469.7Q53.27,557.9,13.63,644.07l3.78-3.18" transform="translate(101.21 -469.52)" style="fill:none;stroke:#280702;stroke-miterlimit:10;opacity:0.48"/><path d="M35,511.42C-4.89,566.74-53,615.53-100.85,664.08l6.37-4.3" transform="translate(101.21 -469.52)" style="fill:none;stroke:#280702;stroke-miterlimit:10;opacity:0.48"/><path d="M1913.7,976.28c1.13-1,.39-2.8-.42-4q-39.79-61.69-79.58-123.38c-2.15-3.33-4.34-6.78-4.93-10.7-1-6.91,3.06-13.39,5.5-19.94,8.42-22.54-2.85-47.49-16.14-67.55-8.59-13-18.41-25.54-31.48-34-11.75-7.58-25.5-11.4-37.89-17.88-26.85-14-45.58-39.43-63.35-64" transform="translate(101.21 -469.52)" style="fill:none;stroke:#280702;stroke-miterlimit:10;opacity:0.48"/><path d="M1755.1,723.54A50.88,50.88,0,0,0,1773,772.08c4.74,3.76,10.21,6.71,14.19,11.27,7.49,8.61,8.33,21.33,15.07,30.54,2.73,3.72,6.6,7.52,5.85,12.08" transform="translate(101.21 -469.52)" style="fill:none;stroke:#280702;stroke-miterlimit:10;opacity:0.48"/></g></g></svg>