<svg xmlns="http://www.w3.org/2000/svg" xmlns:xlink="http://www.w3.org/1999/xlink" viewBox="0 0 351 349.09"><defs><clipPath id="clip-path" transform="translate(-727 -233.91)"><circle cx="902" cy="387" r="143" style="fill:none"/></clipPath></defs><g id="Layer_2" data-name="Layer 2"><g style="clip-path:url(#clip-path)"><path d="M902,245a142,142,0,1,1-100.41,41.59A141.07,141.07,0,0,1,902,245m0-1a143,143,0,1,0,143,143A143,143,0,0,0,902,244Z" transform="translate(-727 -233.91)" style="fill:#fff"/><g style="opacity:0.14"><ellipse cx="830.88" cy="469.59" rx="28.17" ry="54.59" transform="translate(-788.91 573.03) rotate(-50.17)" style="fill:#fff"/></g><ellipse cx="986" cy="299" rx="51" ry="74" transform="translate(-680.75 487.55) rotate(-41.08)" style="fill:#fff;opacity:0.33"/></g></g><g id="Layer_3" data-name="Layer 3"><path d="M909.5,502.5l-142.44-.68a3.91,3.91,0,0,0-.06.68c0,13.44,64.33,24.5,142.5,24.5S1052,515.94,1052,502.5Z" transform="translate(-727 -233.91)" style="fill:#512607"/><ellipse cx="179" cy="311.59" rx="161" ry="34.5" style="fill:#512607"/><rect y="313.09" width="351" height="26" rx="5.47" style="fill:#512607"/><rect x="10" y="331.09" width="335" height="18" rx="5.41" style="fill:#512607"/></g></svg>