<svg xmlns="http://www.w3.org/2000/svg" xmlns:xlink="http://www.w3.org/1999/xlink" viewBox="0 0 454.12 634.58"><defs><clipPath id="clip-path" transform="translate(-404.03 -216)"><rect x="564.5" y="593.5" width="122" height="135" style="fill:none"/></clipPath><linearGradient id="linear-gradient" x1="221.47" y1="485.75" x2="221.47" y2="333.53" gradientUnits="userSpaceOnUse"><stop offset="0" stop-color="#562603"/><stop offset="0.71" stop-color="#0f0600"/></linearGradient><clipPath id="clip-path-2" transform="translate(-404.03 -216)"><polygon points="524 498.97 465.09 450.03 455.99 471 475.45 531.42 499 589 514 580.15 552.73 556.04 524 498.97" style="fill:none"/></clipPath><linearGradient id="linear-gradient-2" x1="534.27" y1="560.53" x2="478.14" y2="456.99" gradientUnits="userSpaceOnUse"><stop offset="0" stop-color="#8d5100"/><stop offset="1" stop-color="#562600"/></linearGradient><linearGradient id="linear-gradient-3" x1="493.89" y1="543.43" x2="548.12" y2="425.09" xlink:href="#linear-gradient"/><clipPath id="clip-path-3" transform="translate(-404.03 -216)"><polygon points="723.09 512.97 782 464.03 791.11 485 771.64 545.42 748.09 603 733.09 594.15 694.36 570.04 723.09 512.97" style="fill:none"/></clipPath><clipPath id="clip-path-4" transform="translate(-404.03 -216)"><path d="M535,360c-5,6.16-8.31,10.15-10.64,16.64C522.44,382,521,386.38,518,400c-.43,2-6,14-3.4,40.69.64,6.59,2.7,14.85,3.4,25.31,2,30,4.56,34.83,7,44,4,15,3.28,21,8,37a148.52,148.52,0,0,0,10,25c7.55,15.1,17.11,45.74,85.5,102.7C655.93,650.55,690.66,615,708,563c3-9,5-14,8-24,2.56-8.48,8-27.32,14-63,10.11-59.63,6.52-74.67,5-80a207.89,207.89,0,0,0-7-21c-13.23-32.2-42-50-42-50-38.45-23.78-81-11.62-92-8C594,317,561.43,327.73,535,360Z" style="fill:none"/></clipPath><linearGradient id="linear-gradient-4" x1="626.23" y1="372.24" x2="622.05" y2="614.98" gradientUnits="userSpaceOnUse"><stop offset="0" stop-color="#513200"/><stop offset="1" stop-color="#975e00"/></linearGradient><linearGradient id="linear-gradient-5" x1="224.15" y1="420.3" x2="220.73" y2="31.53" gradientUnits="userSpaceOnUse"><stop offset="0" stop-color="#eace3f" stop-opacity="0.2"/><stop offset="1" stop-color="#610768" stop-opacity="0.5"/></linearGradient><linearGradient id="linear-gradient-6" x1="95.32" y1="321.78" x2="337.05" y2="254.02" gradientUnits="userSpaceOnUse"><stop offset="0" stop-color="#fffbe9" stop-opacity="0.2"/><stop offset="1" stop-color="#610768" stop-opacity="0"/></linearGradient><linearGradient id="linear-gradient-7" x1="627.8" y1="681.78" x2="627.8" y2="518.92" xlink:href="#linear-gradient-5"/><linearGradient id="linear-gradient-8" x1="593.18" y1="593.96" x2="663.4" y2="593.96" gradientUnits="userSpaceOnUse"><stop offset="0" stop-color="#ffdd54"/><stop offset="0.06" stop-color="#f1cc43"/><stop offset="0.18" stop-color="#dcb42b"/><stop offset="0.3" stop-color="#cca118"/><stop offset="0.45" stop-color="#c1940a"/><stop offset="0.64" stop-color="#ba8c02"/><stop offset="1" stop-color="#b88a00"/></linearGradient><linearGradient id="linear-gradient-9" x1="505.1" y1="505.04" x2="661.36" y2="404.91" gradientUnits="userSpaceOnUse"><stop offset="0" stop-color="#ffdd54"/><stop offset="0.03" stop-color="#f6d24c"/><stop offset="0.13" stop-color="#ddb434"/><stop offset="0.23" stop-color="#c99c21"/><stop offset="0.35" stop-color="#b98912"/><stop offset="0.49" stop-color="#ad7b08"/><stop offset="0.66" stop-color="#a77302"/><stop offset="1" stop-color="#a57100"/></linearGradient><linearGradient id="linear-gradient-10" x1="599.09" y1="551.2" x2="838.04" y2="314.15" xlink:href="#linear-gradient-9"/><linearGradient id="linear-gradient-11" x1="121.86" y1="308.05" x2="156.94" y2="358.54" gradientUnits="userSpaceOnUse"><stop offset="0" stop-color="#ffdd54"/><stop offset="0.76" stop-color="#975e00"/></linearGradient><linearGradient id="linear-gradient-12" x1="259.22" y1="303.89" x2="201.19" y2="247.76" gradientUnits="userSpaceOnUse"><stop offset="0" stop-color="#513200"/><stop offset="0.82"/></linearGradient><clipPath id="clip-path-6" transform="translate(-404.03 -216)"><path d="M550.91,344.54a713.74,713.74,0,0,0,158.37,6.68c1.81-.12,4-.51,4.63-2.2a4.83,4.83,0,0,0,0-2.56l-6.16-35.25c-1.94-11.12-3.89-22.28-7.36-33-2.13-6.59-4.82-13-7.51-19.37l-14.42-34.25a9.05,9.05,0,0,0-1.76-3c-1.92-2-5.05-1.8-7.78-1.52l-53.84,5.58c-5.42.56-11.11,1.22-15.58,4.35-7.85,5.5-9.18,16.32-10.93,25.74-2.66,14.38-32.92,76.12-38.08,89.8" style="fill:none"/></clipPath><clipPath id="clip-path-7" transform="translate(-404.03 -216)"><circle cx="562" cy="513" r="20" style="fill:none"/></clipPath><radialGradient id="radial-gradient" cx="156.47" cy="297" r="46.85" gradientUnits="userSpaceOnUse"><stop offset="0" stop-color="#513200" stop-opacity="0"/><stop offset="1"/></radialGradient><clipPath id="clip-path-8" transform="translate(-404.03 -216)"><circle cx="692.5" cy="496.5" r="25.5" style="fill:none"/></clipPath><radialGradient id="radial-gradient-2" cx="292.78" cy="272.27" r="62.7" gradientUnits="userSpaceOnUse"><stop offset="0" stop-opacity="0"/><stop offset="1"/></radialGradient></defs><g id="Layer_34" data-name="Layer 34"><g style="clip-path:url(#clip-path)"><rect x="160.47" y="377.5" width="122" height="135" style="fill:url(#linear-gradient)"/></g></g><g id="Layer_35" data-name="Layer 35"><path d="M536.62,849.6a529.29,529.29,0,0,1-117.51-20.11c-6.08-1.77-13-4.51-14.72-10.61a13,13,0,0,1,.75-8.15c5.13-13,22.92-19.07,24.49-32.91.35-3.18-.25-6.44.41-9.57,1.7-8.18,10.7-12.16,18.25-15.74,41.24-19.54,68.32-61.73,109.62-81.15,3.58-1.68,7.34-3.2,11.3-3.33a32.36,32.36,0,0,1,9.9,1.73c32.85,9.44,68.41,22.17,100,9.07,4.53-1.87,8.93-4.28,13.77-5,12.3-1.85,23.47,7.46,30.84,17.47s13.24,21.69,23.6,28.56c8,5.3,18,7.24,25.32,13.46,8,6.82,11.4,17.64,18.41,25.48,8.18,9.14,20.37,13.33,30.91,19.59a85.43,85.43,0,0,1,33.69,37.26c1.7,3.65,3.16,7.72,2.24,11.64-2,8.48-12.81,10.71-21.51,11.24l-81.72,5c-22,1.34-44,2.68-66,1.29-14.68-.93-29.31-3.08-44-3.1-38.62-.06-61.79,12.6-100.11,7.82Z" transform="translate(-404.03 -216)" style="fill:#38002a"/></g><g id="Layer_24" data-name="Layer 24"><g style="clip-path:url(#clip-path-2)"><g id="Layer_25" data-name="Layer 25"><path d="M520,598l51.26-47L560,487l-86-56-52.17,39.45S489.2,598.92,490.1,600,520,598,520,598Z" transform="translate(-404.03 -216)" style="fill:url(#linear-gradient-2)"/></g><g id="Layer_26" data-name="Layer 26"><path d="M532,628" transform="translate(-404.03 -216)" style="fill:#f4c100"/><polygon points="89.97 371 137.97 341.11 141.7 358.41 127.61 371 92.51 380.05 89.97 371" style="fill:#b88500"/><path d="M515,514" transform="translate(-404.03 -216)" style="fill:#0d0300"/><path d="M527,505" transform="translate(-404.03 -216)" style="fill:#0d0300"/></g><g id="Layer_27" data-name="Layer 27"><path d="M527,514c-14.58-19.67-34.43-29.26-48-34a19.19,19.19,0,0,0-4,9c-1.86,12.67,10.67,26.56,24,29a25.4,25.4,0,0,0,9,0,81.15,81.15,0,0,0-5,41c6.33,1.67,13,11,28,0,4.54-1.59-16.52-19.51-13-28C523.27,518.3,533.78,523.15,527,514Z" transform="translate(-404.03 -216)" style="fill:url(#linear-gradient-3)"/><path d="M556,607" transform="translate(-404.03 -216)" style="fill:#562600"/></g></g></g><g id="Layer_24_copy" data-name="Layer 24 copy"><g style="clip-path:url(#clip-path-3)"><g id="Layer_25_copy" data-name="Layer 25 copy"><path d="M727.09,612l-51.26-47,11.26-64,86-56,52.17,39.45S757.9,612.92,757,614,727.09,612,727.09,612Z" transform="translate(-404.03 -216)" style="fill:#8d5100"/></g><g id="Layer_26_copy" data-name="Layer 26 copy"><path d="M715.09,642" transform="translate(-404.03 -216)" style="fill:#f4c100"/><polygon points="349.06 385 301.06 355.11 297.32 372.41 311.42 385 346.51 394.05 349.06 385" style="fill:#b88500"/><path d="M732.09,528" transform="translate(-404.03 -216)" style="fill:#0d0300"/><path d="M720.09,519" transform="translate(-404.03 -216)" style="fill:#0d0300"/></g><g id="Layer_27_copy" data-name="Layer 27 copy"><path d="M720.09,528c14.58-19.67,34.43-29.26,48-34a19.08,19.08,0,0,1,4,9c1.86,12.67-10.67,26.56-24,29a25.4,25.4,0,0,1-9,0,81.15,81.15,0,0,1,5,41c-6.33,1.67-13,11-28,0-4.54-1.59,16.52-19.51,13-28C723.82,532.3,713.31,537.15,720.09,528Z" transform="translate(-404.03 -216)" style="fill:#562600"/><path d="M556,607" transform="translate(-404.03 -216)" style="fill:#562600"/></g></g></g><g id="Layer_1" data-name="Layer 1"><g id="Layer_37" data-name="Layer 37"><g style="clip-path:url(#clip-path-4)"><path d="M535,360c-5,6.16-8.31,10.15-10.64,16.64C522.44,382,521,386.38,518,400c-.43,2-6,14-3.4,40.69.64,6.59,2.7,14.85,3.4,25.31,2,30,4.56,34.83,7,44,4,15,3.28,21,8,37a148.52,148.52,0,0,0,10,25c7.55,15.1,17.11,45.74,85.5,102.7C655.93,650.55,690.66,615,708,563c3-9,5-14,8-24,2.56-8.48,8-27.32,14-63,10.11-59.63,6.52-74.67,5-80a207.89,207.89,0,0,0-7-21c-13.23-32.2-42-50-42-50-38.45-23.78-81-11.62-92-8C594,317,561.43,327.73,535,360Z" transform="translate(-404.03 -216)" style="fill:url(#linear-gradient-4)"/><g id="Layer_38" data-name="Layer 38"><ellipse cx="222.97" cy="286" rx="138" ry="187" style="fill:url(#linear-gradient-5)"/></g><g id="Layer_38_copy" data-name="Layer 38 copy"><ellipse cx="222.97" cy="286" rx="138" ry="187" style="fill:url(#linear-gradient-6)"/></g><g id="Layer_39" data-name="Layer 39"><path d="M604.33,567.3a14.47,14.47,0,0,1,1,5.71c-.26,2.3-1.67,4.28-3,6.17-9.71,13.66-18.16,29.09-18.88,45.83-.42,9.84,1.86,19.57,4.12,29.15.56,2.4,1.18,4.9,2.79,6.75,1.31,1.5,7.85,16.24,9.65,17.09,18.44,8.7,34-.41,54.44-.12,1.54,0,3.21,0,4.43-1a7.1,7.1,0,0,0,2-3.3l5.27-14.1c3.58-9.57,7.22-19.67,5.72-29.78-1-6.4-3.9-12.31-5.83-18.48-3.31-10.61-3.63-22.16-8.53-32.13-3.41-7-9.06-13.3-9.24-21-.2-9.18,7.5-18.06,4.48-26.73-1.92-5.5-7.61-8.73-13.17-10.47-11.62-3.65-25.42-2.45-34.44,5.74-5.53,5-5.54,10-4.66,16.69C601.53,551.48,601.89,559.33,604.33,567.3Z" transform="translate(-404.03 -216)" style="fill:url(#linear-gradient-7)"/></g></g></g><rect x="197.97" y="361" width="51" height="71" rx="17.61" style="fill:#2b1100"/><g id="Layer_18" data-name="Layer 18"><path d="M596,615c-1-2.11-5.19-12-1-23,3.37-8.88,10.2-13.26,13-15,8.81-5.48,17.59-5.2,24-5s12,.38,18,4c1.66,1,10.93,6.55,13,18a26.78,26.78,0,0,1-4,19h0l-10-10-10,13-11-13-9,12-12-12Z" transform="translate(-404.03 -216)" style="stroke:#5b2907;stroke-miterlimit:10;fill:url(#linear-gradient-8)"/><path d="M664,614" transform="translate(-404.03 -216)" style="fill:#2b1100"/></g><path d="M625.4,484.17,602.5,533.5l5.09,11.16,8.49,18.6L628.5,590.5l24-62c-2.1-11.72-6.39-18.73-10-23-2-2.33-4.12-4.3-8-9A138.56,138.56,0,0,1,625.4,484.17Z" transform="translate(-404.03 -216)" style="fill:#4e2200"/><g id="Layer_15" data-name="Layer 15"><polygon points="223.97 373.5 222.97 286.5 197.97 316.5 206.14 336.18 216.97 345 212.68 350.54 223.97 373.5" style="fill:#ffdd54"/><polygon points="223.97 373.5 248.26 313.03 223.97 288.03 223.97 373.5" style="fill:#673500"/></g><path d="M641.5,503.5" transform="translate(-404.03 -216)" style="fill:none;stroke:#000;stroke-miterlimit:10"/><path d="M613.5,543.5" transform="translate(-404.03 -216)" style="fill:none;stroke:#000;stroke-miterlimit:10"/></g><g id="Layer_21" data-name="Layer 21"><path d="M628.5,674.7" transform="translate(-404.03 -216)" style="fill:#ffb17f"/></g><g id="Layer_9" data-name="Layer 9"><g style="clip-path:url(#clip-path-4)"><g id="Layer_10" data-name="Layer 10"><polygon points="127.97 346 157.97 361.09 223.47 287.5 286.97 355 330.98 297 263.95 287.5 221.37 248.44 181.92 300.92 130.34 277 109.89 234.03 127.97 346" style="fill:#513200"/></g><g id="Layer_13" data-name="Layer 13"><polyline points="223.47 287.5 221.37 248.44 186.95 294.22 197.86 316.27 198.47 317.5" style="fill:#c07e00"/></g><g id="Layer_19" data-name="Layer 19"><path d="M547,498l-13-5-16-34,14-35,86,10,6,31-38,52Z" transform="translate(-404.03 -216)" style="fill:url(#linear-gradient-9)"/></g><g id="Layer_19_copy" data-name="Layer 19 copy"><path d="M702,498c3.48-1.34,11.47,12.15,16.73,16.66a2.68,2.68,0,0,0,4.27-1.29c4.14-13.28,3-43.81,8-54.37l-14-35-86,10-6,31c12.67,17.33,31.33,23.67,44,41C682,499.67,689,504.33,702,498Z" transform="translate(-404.03 -216)" style="fill:url(#linear-gradient-10)"/></g><g id="Layer_20" data-name="Layer 20"><polygon points="160.97 398 153.97 330 137.97 321 129.97 277 113.97 243 99.49 329.58 160.97 398" style="fill:url(#linear-gradient-11)"/></g><g id="Layer_23" data-name="Layer 23"><polygon points="278.98 398 288.47 329 315.05 303.17 326.97 243 332.97 224 320.97 385 278.98 398" style="fill:#b88a00"/></g><g id="Layer_14" data-name="Layer 14"><polygon points="248.04 313.61 255.38 279.64 221.37 248.44 223.47 287.5 248.04 313.61" style="fill:url(#linear-gradient-12)"/></g><g id="Layer_12" data-name="Layer 12"><path d="M585,504c1.73-5.74-13.31-11.55-20-15-7.56-3.89-20.62-6.6-26,0-3.3,4.06,1.92,14.64,2,15,1.89,8.08,31.85,24,35,23C582,525,583.07,510.4,585,504Z" transform="translate(-404.03 -216)" style="fill:#100800"/><path d="M544,520a8.89,8.89,0,0,0-2,5c-.19,5.81,6.8,11.67,13,13,11.64,2.49,27.1-9.61,27-23,0-4.65-2-11.45-7-14C563.91,495.39,547.5,515.26,544,520Z" transform="translate(-404.03 -216)" style="fill:#100800"/></g><g id="Layer_16" data-name="Layer 16"><path d="M669,491c1.06-9.86,1.78-16.53,7-22,8.85-9.27,26.7-11,38-2,5.79,4.59,12,13.67,10,22-2.39,10.05-15.46,14-14,19,1,3.51,7.8,2.44,9,6,1.62,4.78-7.82,14.89-19,17-10.36,2-21.18-3.15-27-11C666.78,511.62,667.79,502.18,669,491Z" transform="translate(-404.03 -216)" style="fill:#2e1e00"/></g></g></g><g id="Layer_6_copy" data-name="Layer 6 copy"><g style="clip-path:url(#clip-path-6)"><g id="Layer_6" data-name="Layer 6"><path d="M550.91,344.54a713.74,713.74,0,0,0,158.37,6.68c1.81-.12,4-.51,4.63-2.2a4.83,4.83,0,0,0,0-2.56l-6.16-35.25c-1.94-11.12-3.89-22.28-7.36-33-2.13-6.59-4.82-13-7.51-19.37l-14.42-34.25a9.05,9.05,0,0,0-1.76-3c-1.92-2-5.05-1.8-7.78-1.52l-53.84,5.58c-5.42.56-11.11,1.22-15.58,4.35-7.85,5.5-9.18,16.32-10.93,25.74-2.66,14.38-32.92,76.12-38.08,89.8" transform="translate(-404.03 -216)" style="fill:#970c00"/></g><g id="Layer_8" data-name="Layer 8"><path d="M601.93,227.15c-2.82,2.33-5.88,5.12-6,8.78a8.48,8.48,0,0,0,3.53,6.66,19.47,19.47,0,0,0,7.13,3.1,58.61,58.61,0,0,0,25.45.87c2.63-.5,5.22-1.17,7.81-1.85,10.58-2.76,21.34-5.67,30.48-11.66,2.61-1.71,5.15-3.76,6.48-6.58s1.11-6.57-1.23-8.63c-2.08-1.83-5.13-1.89-7.9-1.82q-17.13.39-34.21,1.92a129.81,129.81,0,0,0-22,3.43,34.61,34.61,0,0,0-10.73,4.57" transform="translate(-404.03 -216)" style="fill:#ff5b3b"/></g></g></g><g id="Layer_3" data-name="Layer 3"><path d="M609.5,547.5" transform="translate(-404.03 -216)" style="fill:none;stroke:#000;stroke-miterlimit:10"/><path d="M619,545" transform="translate(-404.03 -216)" style="fill:#331400"/><path d="M613.93,558.55" transform="translate(-404.03 -216)" style="fill:#331400"/></g><g id="Layer_4" data-name="Layer 4"><g style="clip-path:url(#clip-path-7)"><circle cx="157.97" cy="297" r="20" style="fill:#ede8be"/><path d="M543.93,513c-.54,11.63,10.32,21,21.86,19,2.5-.55,5.18-.87,7.32-2.42a18.89,18.89,0,0,0,6.49-23.91c-8.54-17.11-34.53-11.55-35.67,7.29Zm-3.86,0a22.16,22.16,0,0,1,13.22-21,21.76,21.76,0,0,1,23.88,5.84c7.54,8.27,7,21.79-1,29.33a37.44,37.44,0,0,1-6.4,4.57c-13.47,6.69-29.33-3.8-29.69-18.73Z" transform="translate(-404.03 -216)" style="fill:#020202"/><path d="M556.5,514.5c-4.11-1.84-7.22,1.35-4.64,5.18,3.65,4.92,11,.89,9.58-4.82-.73-3.17-3.11-6.59-6.43-7.22-5.57-1-9,4.47-7.73,9.52.61,3.29,3.24,6,6.07,7.52,7.4,3.31,11.84-1.39,12.27-8.57,0-.06,0-.3,0-.36s0-.06,0,0a1.16,1.16,0,0,0,.12.45l3.52-1.42a2.6,2.6,0,0,1,.15,1.07c-.51,10-7.94,16.38-17.54,11.6-5.62-3.08-9.06-9.85-6.77-16.06a8.85,8.85,0,0,1,15.51-2.35c2.42,3.14,3.89,8.1,1.07,11.45a6.57,6.57,0,0,1-10.67-.21c-2.93-4.25,1-9.22,5.49-5.79Z" transform="translate(-404.03 -216)" style="fill:#d01c00"/><g id="Layer_40" data-name="Layer 40"><ellipse cx="156.47" cy="297" rx="26.5" ry="23" style="fill:url(#radial-gradient)"/></g><circle cx="144.97" cy="288" r="4" style="fill:#efecd0"/></g></g><g id="Layer_5" data-name="Layer 5"><g style="clip-path:url(#clip-path-8)"><circle cx="288.47" cy="280.5" r="25.5" style="fill:#ede8be"/><path d="M668.93,496.5c-.81,11,7.5,22.66,18.69,24.54l2.44.24h2.44c13-.35,23.85-12,23-24.79a22.36,22.36,0,0,0-14.71-20,39.76,39.76,0,0,0-8.29-1.7c-12.09-.86-23.18,9.41-23.57,21.71Zm-3.86,0c-.91-15.17,12-28.95,27.43-29.29a23.69,23.69,0,0,1,11.23,2.18c27.4,13,19.38,53.61-11.23,53.32-14.75-1-26.58-10.94-27.43-26.21Z" transform="translate(-404.03 -216)" style="fill:#070300"/><path d="M702.51,486.46c8.07,2.34,2.9,11.27-3.79,9.23-5.67-1.71-8.89-9.13-5.05-14,2.71-3.82,8.19-3.86,12.08-2,9.85,4.7,10.19,19.91,1.5,26-5.22,3.56-12.21,1.46-16.8-2.16a20.07,20.07,0,0,1-6.3-9c-3.6-7.57-.53-18.32,7.57-21.6a13.72,13.72,0,0,1,9.37-.2l-1.18,3.42c-8-2.89-14.21,4.06-14.29,11.8a11.92,11.92,0,0,0,1.12,5.51A16.85,16.85,0,0,0,698.91,505c11.66,2.73,16.83-14.59,9.38-21.84-3.35-3.75-10.4-5.36-13.85-1-3.63,4.4-.7,11.28,4.44,13a6,6,0,0,0,7-2.54c1.56-2.56-.75-5.59-3.4-6.12l0-.08Z" transform="translate(-404.03 -216)" style="fill:#ff3600"/><ellipse cx="287.97" cy="282.5" rx="31" ry="30.5" style="fill:url(#radial-gradient-2)"/><circle cx="275.47" cy="273.5" r="4.5" style="fill:#efecd0"/></g></g><g id="Layer_17" data-name="Layer 17"><path d="M602.06,533.78" transform="translate(-404.03 -216)" style="fill:none;stroke:#0d0200;stroke-miterlimit:10"/><path d="M628.06,590.78" transform="translate(-404.03 -216)" style="fill:none;stroke:#0d0200;stroke-miterlimit:10"/><polygon points="233.61 350.89 229.97 345 238.37 337.64 233.61 350.89" style="fill:#0d0200"/></g><g id="Layer_42" data-name="Layer 42"><path d="M719.62,359.12c-1.5,8-9.32,12.8-12.16,20-1.25,3.65-2.34,7.92-5.38,10.64-2.84,2.88-6.28,4.92-8.58,7.92a54.38,54.38,0,0,0-3,5,17.56,17.56,0,0,1-9.46,7.43c-4.41,1.1-10,2-14.4,3.06a4.76,4.76,0,0,0-2.22,1.51,13.44,13.44,0,0,1-10.86,4,13.87,13.87,0,0,0,10.25-4.64c1.25-1.75,3.45-2.22,5.41-2.61l8.63-2a16.4,16.4,0,0,0,7.74-3.33c3.29-2.35,4.46-6.09,6.81-9.3,3.68-4.82,9.54-7.06,11.85-12.66.74-1.74,1.21-3.65,2-5.54,2.91-7.45,10.73-11.86,12.46-19.7l1,.19Z" transform="translate(-404.03 -216)" style="fill:#441906"/><path d="M684,425.65c3.25-4.19,6.93-10.1,3.79-15.31-.66-.95-1-2.4.05-3.26a5,5,0,0,0,1-1,2.35,2.35,0,0,0-.07-2.44l.83-.55a3.25,3.25,0,0,1,0,3.45c-.5.91-1.74,1.15-1.68,2.2.09.83.86,1.73,1.16,2.77,1.7,5.32-1.83,10.3-5,14.18Z" transform="translate(-404.03 -216)" style="fill:#441906"/><path d="M533.47,362.49c3,6.22,5.7,12.85,6.11,19.84.47,4.56-1.77,9.28.69,13.53a61.65,61.65,0,0,0,3.62,5.86A72.11,72.11,0,0,1,550.22,414a73.3,73.3,0,0,0-6.53-12.16c-2.55-3.72-5.84-7.81-5-12.64,1.56-9.22-2-18.19-6.09-26.28l.9-.44Z" transform="translate(-404.03 -216)" style="fill:#441906"/><path d="M607.19,603.26l-.26-13.65" transform="translate(-404.03 -216)" style="fill:none;stroke:#441906;stroke-miterlimit:10"/><path d="M628.27,602.68c-.56-1.29-.23-2.76-.18-4.16a10.21,10.21,0,0,0-.81-4.47" transform="translate(-404.03 -216)" style="fill:none;stroke:#441906;stroke-miterlimit:10"/><path d="M649,602.67c-.94-1.89.75-4.06.65-6.16a12.65,12.65,0,0,0-.78-2.86,17.4,17.4,0,0,1-.49-4l-.23-5.72" transform="translate(-404.03 -216)" style="fill:none;stroke:#441906;stroke-miterlimit:10"/><path d="M607.51,577.84a21.66,21.66,0,0,0-.23,4.76" transform="translate(-404.03 -216)" style="fill:none;stroke:#441906;stroke-miterlimit:10"/><path d="M645.72,574a12.82,12.82,0,0,1,1.38,5.14" transform="translate(-404.03 -216)" style="fill:none;stroke:#441906;stroke-miterlimit:10"/><path d="M537.68,496c-2.5-1.92-5.21-4.16-5.83-7.49s.82-6.09-.34-9.14c-1.36-4.26-4.7-8.23-5-12.94a7.9,7.9,0,0,1,.92-4.57,8.35,8.35,0,0,0-.4,4.5c1,6.13,7,10.83,6.25,17.46a19.39,19.39,0,0,0-.15,4.46c.53,2.94,3,5,5.22,6.94l-.63.78Z" transform="translate(-404.03 -216)" style="fill:#441906"/><path d="M717.05,497.34c1.11-2.47,4.05-8.06,4.93-10.52.73-1.87-.1-3.8.24-5.73.57-1.89,1.64-3.52,1.79-5.53a12.79,12.79,0,0,0-1.31-7.51,12.88,12.88,0,0,1,1.55,7.54c-.07,2-1.09,3.75-1.6,5.58-.21,1.27.21,2.53.22,3.83,0,2-1,3.88-1.77,5.65L718,497.76l-.9-.42Z" transform="translate(-404.03 -216)" style="fill:#441906"/><path d="M628.5,590.5a141.67,141.67,0,0,1-11.79-24,141.3,141.3,0,0,1,11.79,24Z" transform="translate(-404.03 -216)" style="fill:#fcf0eb"/><path d="M621,561l-11.12-8.45-.1-.07,0-.12L602,534.7l-.12-.28.19-.23L624,507.43l-21.11,27.38.07-.51L610.63,552l-.14-.19S621.16,561,621,561Z" transform="translate(-404.03 -216)" style="fill:#fcf0eb"/></g></svg>