<?xml version="1.0" encoding="utf-8"?>
<!-- Generator: Adobe Illustrator 26.0.1, SVG Export Plug-In . SVG Version: 6.00 Build 0)  -->
<svg version="1.1" xmlns="http://www.w3.org/2000/svg" xmlns:xlink="http://www.w3.org/1999/xlink" x="0px" y="0px"
	 viewBox="0 0 73.1 63.3" style="enable-background:new 0 0 73.1 63.3;" xml:space="preserve">
<style type="text/css">
	.st0{fill:#B88A00;}
	.st1{fill:#280D03;}
</style>
<g id="Layer_1">
	<g>
		<path class="st0" d="M1.1,16c4.1-5.8,9.2-10.9,15-15l10,11l12-12c3.3,4.3,6.7,8.7,10,13l11-12l12,13c1.6,3.3,2.1,17.3,2,17
			c-0.3-2,0,15-10,24c-14.6,13.2-34.6,7.1-38,6s-13.7-4.7-21-15c-1.7-2.5-4-8-4-20C0.1,24.2-0.5,18.2,1.1,16z"/>
		<path class="st1" d="M0.7,15.7C4.9,9.8,10.2,4.5,16.2,0.3c2.2,3,4.9,6.1,7.4,8.9c0,0,1.2,1.4,1.2,1.4c0.5,0.5,0.7,1.2,1.6,1
			c0,0-0.7,0-0.7,0l12-12c0,0,0.4-0.4,0.4-0.4c0,0,0.3,0.5,0.3,0.5c0,0,9.6,13.3,9.6,13.3c0,0,10.6-12.3,10.6-12.3s0.3-0.4,0.3-0.4
			s0.4,0.4,0.4,0.4c0,0,12,13,12,13c1.7,4.2,1.6,9,2,13.4c0,1,0.2,2.9,0.2,3.9c0.9,0.2-1.2,0.1-1,0.1c0,0,0,0,0,0c0,0,0,0,0,0.1
			c-0.2-0.1,0.4,0.4,0.7,0.1c0.1,0,0.1-0.2,0.1-0.2c0,0,0,0.1,0,0.2c-1.6,16.7-8.8,28.5-26.1,31.9c-16,2.8-34-3.3-43.6-16.8
			C-0.3,40-0.2,32-0.4,24.7C-0.5,21.7-0.9,18.4,0.7,15.7L0.7,15.7z M1.5,16.3c-1.3,2.5-1,5.6-0.9,8.4c0.2,7.2,0.1,14.9,4,21.1
			C14.2,59.2,32.3,65.2,48.3,62C64.4,58.2,71,46.9,72.5,31.1c0-0.2,0-0.4,0.2-0.6c0.3-0.3,1,0.1,0.8,0.1c0.1,0.1,0.1,0.1,0.1,0.1
			c0,0,0,0.1,0,0.2c0.2,0-1.8-0.1-1,0.1c-0.2-5.3-0.5-12.1-1.9-16.6c0,0-12-13-12-13c0,0,0.7,0,0.7,0c0,0-11.4,11.7-11.4,11.7
			c0,0-10.4-12.7-10.4-12.7s0.7,0,0.7,0c0,0-12,12-12,12c0,0-0.2,0.2-0.2,0.2l-0.5-0.2c0.2-0.9-0.5-1.2-0.9-1.7c0,0-1.3-1.4-1.3-1.4
			c-2.5-2.6-5.2-5.5-7.9-7.9c0,0,0.7,0.1,0.7,0.1C10.6,5.5,5.6,10.5,1.5,16.3L1.5,16.3z"/>
	</g>
</g>
<g id="Layer_2">
	<g>
		<path class="st1" d="M26.7,11.8c0.5,1.7,1,3.6,0.5,5.5c-0.3,0.9-0.7,1.7-0.7,2.5c-0.1,0.8,0.4,1.6,0.6,2.5
			c0.4,1.9-0.6,3.7-0.7,5.4c-0.1,1.8,0.4,3.6,1,5.3c-0.6-1.7-1.3-3.4-1.2-5.3c0.1-1.8,0.9-3.6,0.4-5.3c-0.2-0.8-0.8-1.6-0.7-2.7
			c0-1,0.5-1.9,0.6-2.7c0.4-1.7-0.2-3.4-0.7-5.1L26.7,11.8L26.7,11.8z"/>
	</g>
	<g>
		<path class="st1" d="M48.2,12.7c1.8,1,3.1,2.9,2.1,5c-0.7,1.6-2.2,3-1.9,4.8c0.1,0.8,0.9,1.4,1.1,2.4c0.1,1.1-0.7,1.8-0.9,2.6
			c-0.3,0.8,0.1,1.7,0.5,2.5c0.4,0.8,0.8,1.7,0.4,2.6c0.6-1.9-1.6-3.2-1.1-5.2c0.3-0.9,0.9-1.7,0.8-2.5c-0.2-0.8-1-1.4-1.2-2.4
			c-0.4-2,1.1-3.6,1.7-5.2c0.8-1.8-0.3-3.1-1.9-3.9C47.7,13.6,48.2,12.7,48.2,12.7L48.2,12.7z"/>
	</g>
	<g>
		<path class="st1" d="M36.1,63.6c-1.7-0.7-3.1-1.9-4.3-3.2c-0.6-0.6-1.2-1.2-2-1.4c-0.7-0.3-1.8-0.4-2.4-1.1
			c-1.3-1.4-1.2-3.3-1.7-5c-0.2-1.6-1.7-3.4-0.7-5c-0.6,0.7-0.3,1.7,0,2.5c0.7,1.6,1.2,3.3,1.6,5c0.2,0.8,0.5,1.6,1.1,2.2
			c0.6,0.6,1.4,0.6,2.3,0.9c0.9,0.3,1.7,0.9,2.3,1.5c1.2,1.2,2.6,2.2,4.1,2.8C36.4,62.7,36.1,63.6,36.1,63.6L36.1,63.6z"/>
	</g>
	<g>
		<path class="st1" d="M52.5,60.7c1.3-2.1,2.6-4.5,1.9-7c-0.1-0.4-0.4-0.7-0.3-1.2c0.1-0.5,0.4-0.8,0.5-1.1c1.3-2.2,1.2-5.1-0.3-7.2
			c1.6,2.1,1.9,5.1,0.6,7.5c-0.2,0.3-0.4,0.6-0.4,0.9c0.1,0.5,0.6,1.4,0.6,2.1c0.3,2.3-0.8,4.6-1.8,6.5
			C53.4,61.2,52.5,60.7,52.5,60.7L52.5,60.7z"/>
	</g>
</g>
</svg>
